<?xml version="1.0" standalone="no"?>
<!DOCTYPE svg PUBLIC "-//W3C//DTD SVG 1.1//EN" "http://www.w3.org/Graphics/SVG/1.1/DTD/svg11.dtd" >
<svg xmlns="http://www.w3.org/2000/svg">
<metadata>
Created by FontForge 20120731 at Fri Jul 21 12:42:12 2017
 By admin
</metadata>
<defs>
<font id="iconfont" horiz-adv-x="1024" >
  <font-face 
    font-family="iconfont"
    font-weight="500"
    font-stretch="normal"
    units-per-em="1024"
    panose-1="2 0 6 3 0 0 0 0 0 0"
    ascent="896"
    descent="-128"
    x-height="792"
    bbox="-0.041667 -131 1403 897"
    underline-thickness="0"
    underline-position="0"
    unicode-range="U+0078-F036C"
  />
<missing-glyph 
 />
    <glyph glyph-name=".notdef" 
 />
    <glyph glyph-name=".null" horiz-adv-x="0" 
 />
    <glyph glyph-name="nonmarkingreturn" horiz-adv-x="341" 
 />
    <glyph glyph-name="x" unicode="x" horiz-adv-x="1001" 
d="M281 543q-27 -1 -53 -1h-83q-18 0 -36.5 -6t-32.5 -18.5t-23 -32t-9 -45.5v-76h912v41q0 16 -0.5 30t-0.5 18q0 13 -5 29t-17 29.5t-31.5 22.5t-49.5 9h-133v-97h-438v97zM955 310v-52q0 -23 0.5 -52t0.5 -58t-10.5 -47.5t-26 -30t-33 -16t-31.5 -4.5q-14 -1 -29.5 -0.5
t-29.5 0.5h-32l-45 128h-439l-44 -128h-29h-34q-20 0 -45 1q-25 0 -41 9.5t-25.5 23t-13.5 29.5t-4 30v167h911zM163 247q-12 0 -21 -8.5t-9 -21.5t9 -21.5t21 -8.5q13 0 22 8.5t9 21.5t-9 21.5t-22 8.5zM316 123q-8 -26 -14 -48q-5 -19 -10.5 -37t-7.5 -25t-3 -15t1 -14.5
t9.5 -10.5t21.5 -4h37h67h81h80h64h36q23 0 34 12t2 38q-5 13 -9.5 30.5t-9.5 34.5q-5 19 -11 39h-368zM336 498v228q0 11 2.5 23t10 21.5t20.5 15.5t34 6h188q31 0 51.5 -14.5t20.5 -52.5v-227h-327z" />
    <glyph glyph-name="xiaoyuanxinxi" unicode="&#xe617;" 
d="M62 687v-773h900v773h-900zM911 -35h-798v661h798v-661zM301 384h-104v98h101v-98h3zM835 420h-500v20h503v-20h-3zM301 226h-104v99h101v-99h3zM835 263h-500v19h503v-19h-3zM301 69h-104v98h101v-98h3zM835 108h-500v20h503v-20h-3z" />
    <glyph glyph-name="xiaoyuanyiqiatong" unicode="&#xe620;" 
d="M212 578q-24 -145 -100 -298v-107q5 7 21.5 32t21 31.5t16 25.5t16.5 28.5t12 23t12 26.5v-340h108v388q48 -84 91 -141v116q-2 2 -12.5 21.5t-13 24.5t-12 23t-13.5 27t-11.5 26.5t-11.5 30t-9 29t-8 33.5h66v82h-66v108h-108l1 -108h-91v-82h91zM913 70
q-132 46 -200 106q91 93 134 228h-99q-10 -34 -28.5 -66.5t-31.5 -49l-39 -49.5q-66 73 -99 165h-91q24 -76 53.5 -129.5t71.5 -98.5q-66 -57 -199 -102v-74q161 52 264 119q91 -59 264 -116v67zM913 619v83h-198v66h-107v-66h-190v-83h495zM616 578h-99
q-11 -37 -37.5 -58.5t-77.5 -40.5v-50q89 8 140.5 43.5t74.5 108.5zM913 482q-49 16 -75 36t-40 60h-99q20 -70 70 -104t144 -46v54z" />
    <glyph glyph-name="xiaoyuanheibanbao" unicode="&#xe611;" 
d="M912 108h-800q-13 0 -22.5 9.5t-9.5 22.5v512q0 13 9.5 22.5t22.5 9.5h800q13 0 22.5 -9.5t9.5 -22.5v-512q0 -13 -9.5 -22.5t-22.5 -9.5v0zM896 636h-768v-480h768v480v0zM288 76l-54 -144h-61l51 144h64v0zM544 -36h-64v112h64v-112v0zM851 -68h-61l-54 144h64l51 -144
v0z" />
    <glyph glyph-name="xiaoyuanqiandao" unicode="&#xe612;" 
d="M832 -100h-640q-38 0 -59 19.5t-21 57.5v611q0 33 22.5 56.5t57.5 23.5h112v32q0 7 4.5 11.5t11.5 4.5h16q7 0 11.5 -4.5t4.5 -11.5v-32h320v32q0 7 4.5 11.5t11.5 4.5h16q7 0 11.5 -4.5t4.5 -11.5v-32h96q37 0 66.5 -24t29.5 -56v-611q0 -33 -22 -55t-58 -22v0zM864 588
q0 13 -9.5 22.5t-22.5 9.5h-112v-32q0 -7 -4.5 -11.5t-11.5 -4.5h-16q-7 0 -11.5 4.5t-4.5 11.5v32h-320v-32q0 -7 -4.5 -11.5t-11.5 -4.5h-16q-7 0 -11.5 4.5t-4.5 11.5v32h-112q-13 0 -22.5 -9.5t-9.5 -22.5v-80h704v80v0zM864 460h-704v-464q1 -27 10.5 -37.5t29.5 -10.5
h624q42 3 40 48v464v0zM489 87q-8 -8 -18.5 -8t-18.5 8l-106 118q-7 8 -7 20t7.5 20t18 8t18.5 -8l88 -97l170 189q8 8 18.5 8t18 -8t7.5 -20t-7 -21l-189 -209v0z" />
    <glyph glyph-name="xiaoyuanxinwen" unicode="&#xe627;" horiz-adv-x="1071" 
d="M151 896q-53 0 -90.5 -37.5t-37.5 -90.5v-672q0 -86 128 -128l352 -96v928q-71 19 -159 43t-140.5 38.5l-52.5 14.5v0zM919 896q-185 -51 -353 -96h1v-928l352 96q55 14 91.5 46.5t36.5 81.5v672q0 53 -37.5 90.5t-90.5 37.5v0z" />
    <glyph glyph-name="xiaoyuanbanche" unicode="&#xe626;" 
d="M512 -128q104 0 199 40.5t163.5 109t109 163.5t40.5 199t-40.5 199t-109 163.5t-163.5 109t-199 40.5t-199 -40.5t-163.5 -109t-109 -163.5t-40.5 -199t40.5 -199t109 -163.5t163.5 -109t199 -40.5v0v0zM725 123v0v-43q0 -9 -6.5 -15t-14.5 -6h-64q-9 0 -15.5 6t-6.5 15
v43h-213v-43q0 -9 -6 -15t-15 -6h-64q-9 0 -15 6t-6 15v43v0q-18 0 -30.5 12t-12.5 30v447q0 17 22 30t42 13q10 5 27 12t67.5 19t97.5 12t100.5 -11t82.5 -21l30 -11q18 0 30.5 -12.5t12.5 -30.5v-447q0 -18 -12.5 -30t-30.5 -12v0v0v0v0zM352 186q22 0 37.5 16t15.5 38
t-15.5 37.5t-37.5 15.5t-37.5 -15.5t-15.5 -37.5t15.5 -38t37.5 -16v0v0v0v0zM597 655h-170q-9 0 -15.5 -6t-6.5 -15t6.5 -15.5t15.5 -6.5h170q9 0 15 6.5t6 15.5t-6 15t-15 6v0v0v0v0zM725 527q0 9 -6.5 15.5t-14.5 6.5h-54h-96h-234q-9 0 -15 -6.5t-6 -15.5v-128
q0 -8 6 -14.5t15 -6.5h234h96h54q8 0 14.5 6.5t6.5 14.5v128v0v0v0v0zM672 293q-22 0 -38 -15.5t-16 -37.5t16 -38t38 -16t37.5 16t15.5 38t-15.5 37.5t-37.5 15.5v0v0v0v0z" />
    <glyph glyph-name="xiaoyuankuandai" unicode="&#xe628;" 
d="M512 -122q103 0 197.5 40t162.5 108t108.5 162.5t40.5 198t-40.5 197.5t-108.5 162t-162.5 108.5t-197.5 40.5t-197.5 -40.5t-162.5 -108.5t-108.5 -162t-40.5 -197.5t40.5 -198t108.5 -162.5t162.5 -108t197.5 -40v0v0zM733 604h-446q-13 0 -22.5 -9t-9.5 -23v-190
q0 -13 9.5 -22.5t22.5 -9.5h82v-158q0 -13 9 -22.5t22 -9.5h219q13 0 22.5 9.5t9.5 22.5v158h77q13 0 24.5 9.5t11.5 22.5v190q0 14 -9 23t-22 9v0v0v0v0zM302 604h69v-67q0 -14 -10 -24t-25 -10v0q-14 0 -24 10t-10 24v67v0v0v0v0zM413 604h69v-67q0 -14 -10 -24t-25 -10v0
q-14 0 -24 10t-10 24v67v0v0v0v0zM524 604h69v-67q0 -14 -10 -24t-25 -10v0q-14 0 -24 10t-10 24v67v0v0v0v0zM644 604h69v-67q0 -14 -10 -24t-24 -10v0q-15 0 -25 10t-10 24v67v0v0v0v0zM772 264h-58v-115q0 -24 -16.5 -41t-40.5 -17h-289q-24 0 -41 17t-17 41v115h-58
q-24 0 -41 17t-17 41v289q0 25 17 41.5t41 16.5h520q24 0 41 -16.5t17 -41.5v-289q0 -24 -17 -41t-41 -17v0v0v0z" />
    <glyph glyph-name="xiaoyuanweiguanwang" unicode="&#xe645;" horiz-adv-x="1410" 
d="M512 362v-1h406v1q37 7 62 38.5t27 70.5q-2 47 -32.5 77.5t-77.5 33.5q-1 0 -2 -0.5l-1 -0.5q2 10 2 19q-2 44 -30 72t-72 30q-49 3 -80 -41q-28 38 -80 41q-41 2 -70 -29t-32 -73q0 -10 1 -20q-4 1 -11 2q-44 2 -75.5 -32t-34.5 -79q-2 -42 28 -72.5t72 -36.5v0z
M1247 889h-1084v-716h1084v716v0v0zM1137 283h-864v496h864v-496v0v0zM1247 141h-527h-31h-526l-156 -209v-50h1396v50z" />
    <glyph glyph-name="xiaoyuanfenxiang" unicode="&#xe613;" 
d="M782 501q-84 0 -143 63l-217 -124q9 -30 9 -56q0 -45 -21 -88l208 -119q27 41 70 65.5t94 24.5q81 0 138 -57t57 -137.5t-57 -137.5t-138 -57t-138 57t-57 137q0 2 2 21l-236 135l1 2q-53 -41 -118 -41q-80 0 -137 57t-57 138t57 138t137 57q85 0 143 -63l217 124
q-9 30 -9 56q0 80 57 137t138 57t138 -57t57 -137.5t-57 -137.5t-138 -57zM782.5 -44q48.5 0 82.5 34t34 82.5t-34 82.5t-82.5 34t-83 -34t-34.5 -82.5t34.5 -82.5t83 -34zM236.5 501q-48.5 0 -83 -34.5t-34.5 -82.5t34.5 -82.5t83 -34.5t82.5 34.5t34 82.5t-34 82.5
t-82.5 34.5zM782.5 812q-48.5 0 -83 -34t-34.5 -82.5t34.5 -82.5t83 -34t82.5 34t34 82.5t-34 82.5t-82.5 34z" />
    <glyph glyph-name="xiaoyuanxiaozhushou" unicode="&#xe629;" 
d="M696 181v0v-99q0 -82 -62 -140t-149 -58h-268q-87 0 -149 58t-62 140v99q0 69 46 123t117 69q24 5 43 -10q63 -50 139 -50t140 50q18 15 42 10q71 -15 117 -69t46 -123zM645 181q0 51 -34.5 91t-88.5 52q-77 -61 -171 -61t-171 61q-53 -12 -88 -52t-35 -91v-99
q0 -61 47 -104t113 -43h268q66 0 113 43t47 104v99v0zM630 571v0q0 -84 -37 -156t-101 -114.5t-140.5 -42.5t-141 42.5t-101.5 114.5t-37 156t37 156t101.5 114.5t141 42.5t140.5 -42.5t101 -114.5t37 -156zM580 571q0 109 -67 185.5t-162 76.5t-162 -76.5t-67 -185.5
t67 -185.5t162 -76.5t162 76.5t67 185.5zM697 677q0 10 7 17t17 7h273q10 0 17 -7t7 -17t-7 -17t-17 -7h-273q-10 0 -17 7t-7 17zM697 487q0 10 7 17t17 7h273q10 0 17 -7t7 -17t-7 -17t-17 -7h-273q-10 0 -17 7t-7 17zM763 292q0 10 7.5 17t17.5 7h206q10 0 17 -7t7 -17
t-7 -17t-17 -7h-206q-10 0 -17.5 7t-7.5 17z" />
    <glyph glyph-name="xiaoyuanxiaoxi" unicode="&#xe62a;" 
d="M512 7q-46 0 -94 8l-220 -133v222q-88 62 -138 151.5t-50 191.5q0 89 39.5 170.5t107 140.5t160.5 93.5t195 34.5t195 -34.5t160.5 -93.5t107 -140.5t39.5 -171t-39.5 -170.5t-107 -140t-160.5 -94t-195 -35zM198 -58l194 117q16 10 34 7q44 -7 86 -7q123 0 227 52
t164 141.5t60 194.5t-60 194t-164 141.5t-227 52.5t-227 -52.5t-164 -141.5t-60 -194q0 -88 43.5 -167t123.5 -134q21 -15 21 -42v-191l-26 -16l-25 14v31v0zM317 574.5q0 10.5 7.5 18t17.5 7.5h340q10 0 17.5 -7.5t7.5 -18t-7.5 -17.5t-17.5 -7h-340q-10 0 -17.5 7
t-7.5 17.5zM317 456.5q0 10.5 7.5 18t17.5 7.5h340q10 0 17.5 -7.5t7.5 -18t-7.5 -17.5t-17.5 -7h-340q-10 0 -17.5 7t-7.5 17.5zM317 328.5q0 10.5 7.5 18t17.5 7.5h340q10 0 17.5 -7.5t7.5 -18t-7.5 -17.5t-17.5 -7h-340q-10 0 -17.5 7t-7.5 17.5z" />
    <glyph glyph-name="xiaoyuanfenxiang1" unicode="&#xe62f;" 
d="M796 229q-42 0 -79 -19.5t-61 -52.5l-294 126q29 43 29 91q0 53 -26 92l291 139q24 -30 59 -47.5t75 -17.5q71 0 121 50t50 120.5t-50 121t-121 50.5t-121 -50.5t-50 -120.5q0 -29 8 -54l-302 -149q-46 37 -106 37q-70 0 -120.5 -50t-50.5 -120.5t50.5 -121t120.5 -50.5
q54 0 103 34l311 -134q-6 -14 -6 -48q0 -71 50.5 -121t121 -50t121 50t50.5 120.5t-52 122.5t-122 52zM787 828q47 0 80.5 -33.5t33.5 -80.5t-33.5 -80.5t-80.5 -33.5t-80.5 33.5t-33.5 80.5t33.5 80.5t80.5 33.5zM217 263q-47 0 -81 33.5t-34 80.5t34 80.5t81 33.5
t80.5 -33.5t33.5 -80.5t-33.5 -80.5t-80.5 -33.5zM796 -57q-47 0 -80.5 33.5t-33.5 81t33.5 81t80.5 33.5t80.5 -33.5t33.5 -81t-33.5 -81t-80.5 -33.5z" />
    <glyph glyph-name="xiaoyuanqixiang" unicode="&#xe624;" 
d="M800 471q-11 0 -23 -1q-19 62 -71.5 101.5t-119.5 39.5q-17 0 -37 -3q-75 63 -167 63q-99 0 -173 -64.5t-90 -165.5q-44 -27 -70.5 -69.5t-26.5 -86.5q0 -78 56 -132.5t135 -54.5h587q81 0 140.5 55.5t59.5 131t-59.5 131t-140.5 55.5zM800 165h-587q-55 0 -89 37t-34 83
q0 29 21 58.5t54 46.5l16 8l2 19q9 81 65 134t134 53q73 0 134 -56l13 -12l17 4q16 4 40 4q51 0 88.5 -33.5t43.5 -83.5l4 -38l38 10q19 5 40 5q53 0 93 -36t40 -83.5t-40 -83.5t-93 -36z" />
    <glyph glyph-name="kaoshi" unicode="&#xe600;" 
d="M513 386zM3 386q0 104 40.5 198.5t109 163t163 109t198 40.5t198 -40.5t163 -109t109 -163t40.5 -198.5t-40.5 -198.5t-109 -162.5t-163 -108.5t-198 -40.5t-198 40.5t-163 108.5t-109 162.5t-40.5 198.5zM517 826l-1 1l-335 -271l41 -33l295 238l295 -238l41 33
l-335 271zM257 479v-204h206v196h110v-196h204v204l-265 211zM512 384zM0 384q0 139 68.5 257t186.5 186.5t257 68.5t257 -68.5t186.5 -186.5t68.5 -257t-68.5 -257t-186.5 -186.5t-257 -68.5t-257 68.5t-186.5 186.5t-68.5 257zM526 591q-4 4 -9 9.5l-5 5.5q-15 14 -18 19
h-1q-1 1 -2 1q-2 -2 -5 -4q-1 -1 -3 -2l-2 -1q-1 0 -1 -0.5v-0.5v-2q1 -7 -2 -16q-1 -1 0 -2l4 -4l5 -5q1 -1 3 0q0 1 1 3l2.5 2.5t1.5 -0.5l13 -12q2 -3 19 -21v0q1 -1 3 0q1 0 5 6q4 3 6 5q1 1 1 2.5t-1 2.5q-14 13 -15 14zM545 665q-14 2 -24 -8t-9 -25t12 -25.5
t26 -12.5q14 -1 24 9t9 25q-1 14 -12 25t-26 12zM559 618.5q-4 -3.5 -10 -2.5t-10 5q-5 4 -6 10t3 10t10 3t10 -5.5t5 -9.5q2 -7 -2 -10.5zM596 716q-15 1 -25 -9t-9 -25q2 -14 13 -25q10 -11 25 -12q15 -2 25 8t9 25q-2 15 -13 26t-25 12zM609 669q-4 -4 -10 -3q-5 1 -10 6
q-4 4 -5 9q-1 6 3 10t10 3q5 0 9.5 -4.5t5.5 -10.5t-3 -10zM583 805l-43 -43l-58 57l-308 -307l223 -224l44 44l57 -58l80 79q12 -4 24 -4q29 0 49 20t20 48v0.5v1.5q7 -3 15 -3q21 0 36 15t15 36q0 19 -13 33l82 82zM602 362q-6 0 -13 2q-15 4 -25 14q-16 16 -16 39
q0 17 10 31q5 9 13 14q14 10 31 10q19 0 34 -11l5.5 -5.5l3.5 -3.5q5 -7 8 -14q2 -3 2 -7q1 -4 1 -5q1 -5 1 -9q0 -22 -16 -38.5t-39 -16.5zM686 430q-9 0 -17 4q-1 3 -3 8q-5 13 -15 23q0 1 -1 1.5l-1 0.5q0 15 11 26t26 11h4q15 -2 25 -14q8 -10 8 -23q0 -15 -11 -26
t-26 -11zM701 515q-7 2 -15 2q-18 0 -32 -11.5t-18 -28.5q-15 9 -34 9q-4 0 -8 -1q-23 -3 -40 -19.5t-19 -39.5q-1 -6 -1 -9q0 -28 20 -49l-56 -56l-38 39l-19 19l-127 127l226 226l19 19l24 24l185 -184zM608 449.5q-1 0.5 -5 1.5h-1q-1 0 -1 -1q-4 -6 -12 -9q-1 -1 -1 -2
v-5v-6q0 -2 2 -2h3q2 1 3 1v-1v-17v-2v-5v-8.5v-9.5v-1q-1 -2 1 -2h7h3h3h1q1 0 2 1t1 2v2v17v19v2v22v1v2h-3t-3 0.5zM222 866h4h-4zM512 384zM0 384q0 139 68.5 257t186.5 186.5t257 68.5t257 -68.5t186.5 -186.5t68.5 -257t-68.5 -257t-186.5 -186.5t-257 -68.5
t-257 68.5t-186.5 186.5t-68.5 257zM278 717h-63v-436h594v63h-531v373zM800 722q-6 4 -12 2.5t-10 -6.5l-125 -194l-181 131l-161 -191q-10 -12 2 -22q4 -4 10 -4q8 0 12 6l142 168l184 -133l144 221q8 14 -5 22zM771 482l-147 -65l-123 101l-162 -94q-6 -3 -7.5 -9.5
t1.5 -11.5q8 -14 22 -6l142 83l122 -100l165 74q6 2 8.5 8t-0.5 12t-9 8.5t-12 -0.5z" />
    <glyph glyph-name="iconfonticon" unicode="&#xe62b;" 
d="M1026 381q0 104 -40.5 199t-109.5 163.5t-163.5 109t-199 40.5t-199 -40.5t-163 -109t-109 -163.5t-40.5 -199t40.5 -199t109 -163.5t163 -109t199 -40.5t199 40.5t163.5 109t109.5 163.5t40.5 199v0zM33 381q0 98 38 187t102.5 153t153.5 102.5t186.5 38.5t186.5 -38.5
t153.5 -102.5t102.5 -153t38 -186.5t-38 -186.5t-102.5 -153.5t-153.5 -102.5t-186.5 -38t-186.5 38t-153.5 102.5t-102.5 153.5t-38 186v0zM357 457v0q8 0 13.5 -6t5.5 -15v-198q0 -9 -5.5 -15t-13.5 -6v0q-9 0 -14.5 6t-5.5 15v198q0 9 5.5 15t14.5 6zM421 457v0
q9 0 14.5 -6t5.5 -15v-198q0 -9 -5.5 -15t-14.5 -6v0q-8 0 -13.5 6t-5.5 15v198q0 9 5.5 15t13.5 6zM486 457v0q8 0 14 -6t6 -15v-198q0 -9 -6 -15t-14 -6v0q-8 0 -14 6t-6 15v198q0 9 6 15t14 6zM551 457v0q8 0 14 -6t6 -15v-198q0 -9 -6 -15t-14 -6v0q-8 0 -14 6t-6 15
v198q0 9 6 15t14 6zM616 457v0q8 0 14 -6t6 -15v-198q0 -9 -6 -15t-14 -6v0q-8 0 -14 6t-6 15v198q0 9 6 15t14 6zM681 457v0q8 0 14 -6t6 -15v-198q0 -9 -6 -15t-14 -6v0q-8 0 -14 6t-6 15v198q0 9 6 15t14 6zM287 194h483v-24h-483v24zM504 658q-4 0 -8 -3l-198 -135
q-17 -12 -17 -33q0 -13 9 -13q5 -5 12 -5h434q7 0 12.5 5.5t5.5 13.5q0 2 -1 5q1 0 -2 4v0q-3 6 -9 8q-37 30 -181 121l-43 29q-6 5 -11 3h-3v0z" />
    <glyph glyph-name="icon" unicode="&#xe618;" 
d="M624 524v307h-363v-447h223v-56h-419v-391h587v224h307v363h-335zM316 440v335h252v-335h-252zM596 216h-56v56h56v-56zM121 -7v279h363v-111h112v-168h-475v0zM903 216h-251v112h-112v56h84v84h279v-252z" />
    <glyph glyph-name="xiaoyuan" unicode="&#xe66c;" 
d="M445 127v-28h135v28h-23v282h23v28h-135v-28h23v-282h-23zM188 127v-28h135v28h-23v282h23v28h-135v-28h23v-282h-23zM701 127v-28h135v28h-23v282h23v28h-135v-28h23v-282h-23zM124 46v-12q0 -7 5 -12.5t11 -5.5h744q7 0 11.5 5.5t4.5 12.5v12q0 7 -4.5 12.5t-11.5 5.5
h-744q-6 0 -11 -5.5t-5 -12.5zM943 -14h-861q-7 0 -11.5 -5t-4.5 -13v-11q0 -8 4.5 -13t11.5 -5h861q6 0 10.5 5t4.5 13v11q0 8 -4.5 13t-10.5 5zM113 469h799q12 0 15.5 13t-5.5 21l-400 327q-10 8 -19 0l-400 -327q-10 -8 -6 -21t16 -13zM512.5 706q26.5 0 45 -21
t18.5 -50.5t-18.5 -50.5t-45 -21t-45 21t-18.5 50.5t18.5 50.5t45 21z" />
    <glyph glyph-name="xiaoyuanvwang" unicode="&#xe614;" 
d="M949 505q-21 -25 -61 -114l-228 -503h-17l-227 523q-41 95 -55 111.5t-52 20.5v18h317v-18h-10q-43 0 -59 -11q-11 -7 -11 -21q0 -9 4 -21t26 -63l141 -328l131 292q24 53 29.5 70.5t5.5 30.5q0 15 -8 26t-23 17q-21 8 -56 8v18h217v-18q-36 -6 -64 -38zM650 513v20
q1 -19 1 -39h138v2.5v3.5v3q22 -3 35 -10.5t9 -21.5q-12 -34 -109 -272l-11 -11l-23 51q25 26 44 56h-69l-11 26h88q3 0 6 -1q37 69 41 148h-138q-2 -59 -13 -112l-40 91q0 11 1 21h-11l-5 11q0 1 -0.5 2.5t-1 5.5t1.5 7h16v12q17 7 51 7zM754 640h-3h-117q5 -21 9 -44h-53
q-4 23 -10 44h-123v-44h-52v44h-131q-19 -66 -19 -146h85q10 -11 17 -26h-102q2 -80 23 -147h127v36q20 -45 52 -118v-89q15 10 29 24q11 -24 38 -86q-34 -8 -68 -9v-26v-34q22 -8 36 -27.5t14 -43.5q0 -31 -22 -53.5t-54 -22.5v0q-31 0 -53.5 22.5t-22.5 53.5q0 24 14 43.5
t36 27.5v34v28q-7 4 -17 9.5t-31 21.5t-39.5 36t-40.5 54t-37.5 73t-26 95t-10.5 119q0 65 11.5 122.5t28.5 97t40.5 72.5t43 52t41 34t30 19.5t14.5 6.5l6 2l6 1h4q82 0 157.5 -31t134.5 -89q78 -77 108 -180h-55q-8 24 -18 44zM405 140v155h-118q40 -103 118 -155z
M405 831q-84 -54 -123 -165h123v165zM457 829v-163h115q-36 108 -115 163zM682 739q-62 61 -144 87q61 -65 89 -160h113q-24 40 -58 73zM146 484q0 -113 42.5 -213t114.5 -170q-122 42 -201 148t-79 237q0 135 79.5 242t204.5 147q-75 -69 -118 -171.5t-43 -219.5zM279 -20
q13 0 22.5 -9.5t9.5 -22.5t-9.5 -22.5t-22.5 -9.5h-237q-13 0 -22 9.5t-9 22.5t9 22.5t22 9.5h237zM573 -21q5 -12 14.5 -33t13.5 -30h-20q-14 0 -23 9.5t-9 22.5q0 11 6.5 19.5t17.5 11.5zM817 -20q13 0 22.5 -9.5t9.5 -22.5t-9.5 -22.5t-22.5 -9.5h-117l30 64h87z" />
    <glyph glyph-name="weibiaoti3" unicode="&#xe683;" 
d="M550 195v48q25 13 68 44q18 1 41 -3t38.5 -8.5t35 -11t20.5 -6.5q-12 65 -19 136.5t-9 110.5l-1 40q-16 218 -214 218q-56 0 -97 -16.5t-65 -47t-36 -68t-15 -86.5h-1q-1 -122 -28 -287q9 2 40.5 11.5t54 14t44.5 3.5q43 -32 67 -44v-48q-89 -6 -161 -33.5t-112 -70.5
v-86h622v86q-40 43 -112 70.5t-161 33.5v0zM512 57q-5 0 -14.5 32t-16.5 63t-7 32q17 -20 38 -20q8 0 17.5 5t15.5 10l5 5q-27 -127 -38 -127v0z" />
    <glyph glyph-name="xiaoyuanrongyu" unicode="&#xe6d0;" 
d="M447 333l-105 -8v50l-193 -236l153 28l2 -155l219 266l-13 11zM682 371v-50l-105 8l-18 -13l-56 -42l208 -275l8 156l153 -35zM744 458l-78 -38v-77l-90 6l-64 -45l-64 45l-90 -6v77l-78 38l39 77l-39 79l78 37v77l90 -6l64 45l64 -45l90 6v-77l78 -38l-39 -78l39 -77v0z
M688 477l-29 59l29 58l-58 30v58l-69 -5l-49 35l-48 -35l-69 5v-58l-59 -29l30 -59l-30 -59l59 -29v-59l69 5l48 -34l49 34l69 -5v59l58 29v0zM633 495l-40 -20v-40l-47 3l-34 -23l-33 23l-47 -3v40l-41 20l20 40l-20 42l41 19v40l47 -3l33 23l34 -23l47 3v-40l40 -20
l-20 -41z" />
    <glyph glyph-name="xiaoyuanhuanjing" unicode="&#xe603;" 
d="M770 626q-34 38 -69.5 54t-61.5 13t-52.5 -17t-39 -25.5t-22.5 -23.5q12 0 47.5 3t60.5 4t69 -3l-10 -2.5t-26.5 -5t-39.5 -5t-49 -2.5t-54 3q37 -44 76 -59.5t68.5 -6.5t53.5 25.5t36.5 31t12.5 16.5zM516 751q1 -6 3.5 -17t5 -41t-0.5 -55q10 8 19.5 17.5t20 29.5
t11.5 40.5t-13.5 48.5t-47.5 55q-5 -4 -12.5 -11t-22.5 -29t-20 -43.5t7.5 -51.5t47.5 -56q-3 15 -0.5 63t2.5 50zM758 541h-599q-27 0 -41.5 -12t-16 -28.5t0.5 -33.5t7 -29l4 -11l82 -295q1 -4 3 -10q9 -23 14 -34t15 -24t24 -18t35 -5h345q21 0 35 5.5t24 19.5t15 24.5
t14 33.5q2 5 3 8l82 295q2 4 4.5 12t6 27.5t1 34.5t-17 27.5t-40.5 12.5zM772 454h-196q-63 0 -108 -45t-45 -109v-19q0 -63 45 -108t108 -46v10v-10h196q63 1 108 46t45 108v19q0 64 -45 109t-108 45zM482 300q0 39 28 67t66 28h196q38 0 66 -28t28 -67v-21
q-1 -38 -28.5 -65t-65.5 -27h-196q-38 0 -66 27.5t-28 66.5v19zM473 300zM791 -18q0 -18 -13 -31t-31 -13h-578q-18 0 -31 13t-13 31t13 31t31 13h578q18 0 31 -13t13 -31z" />
    <glyph glyph-name="xiaoyuanmenhu" unicode="&#xe634;" 
d="M828 786h-633q-55 0 -93.5 -38.5t-38.5 -93.5v-527q0 -54 38.5 -93t93.5 -39h633q54 0 93 39t39 93v527q0 55 -39 93.5t-93 38.5zM459 180q0 -11 -8 -18.5t-19 -7.5h-237q-11 0 -18.5 7.5t-7.5 18.5v290q0 11 7.5 18.5t18.5 7.5h237q11 0 19 -7.5t8 -18.5v-290zM650 312
h-60q-11 0 -18.5 7.5t-7.5 18.5t7.5 18.5t18.5 7.5h60q11 0 18.5 -7.5t7.5 -18.5t-7.5 -18.5t-18.5 -7.5zM815 417h-225q-11 0 -18.5 8t-7.5 18.5t7.5 18.5t18.5 8h225q11 0 18.5 -8t7.5 -18.5t-7.5 -18.5t-18.5 -8zM825 575h-630q-11 0 -18.5 8t-7.5 19t7.5 18.5t18.5 7.5
h630q11 0 18.5 -7.5t7.5 -18.5t-7.5 -19t-18.5 -8z" />
    <glyph glyph-name="xiaoyuanzhifu" unicode="&#xe635;" horiz-adv-x="1025" 
d="M981 304l-665 -310q-27 -13 -56.5 -2t-42.5 39l-210 449q-13 28 -2 57.5t39 42.5l665 309q27 13 56.5 2t42.5 -39l210 -449q13 -27 2 -56.5t-39 -42.5zM905 645l-799 -375l-51 105l801 372zM871 520l-296 -139l-23 45l296 139zM473 -128h318q5 5 13.5 14t30 43.5t37 75.5
t26.5 111.5t7 150.5l-518 -242q4 -11 11 -29.5t29.5 -59.5t45.5 -64zM512 82l279 131q-1 0 -14 -17t-36 -38.5t-54 -42t-77.5 -31t-97.5 -2.5zM623 -48q-29 -16 -62.5 -5.5t-48.5 42.5l-147 281q-16 29 -5.5 62.5t42.5 48.5q29 15 62.5 4.5t47.5 -41.5l145 -282
q17 -30 7 -61.5t-41 -48.5zM473 278l-29 -14q-12 -7 -27.5 -2t-23.5 19l-8 17q-7 13 -2.5 28t19.5 23l28 15q13 6 28 1.5t23 -18.5l9 -17q7 -15 2 -30t-19 -22v0z" />
    <glyph glyph-name="xiaoyuanbangong" unicode="&#xe636;" horiz-adv-x="1026" 
d="M956 57h-888q-28 0 -48 19t-20 46v632q0 27 20 46t48 19h891q28 0 48 -19t20 -46v-632q-2 -26 -23 -45.5t-48 -19.5zM575 -34h-126l17 145h92zM296 -65h432v48h-432v-48zM956 185h-888q-8 0 -15 7t-7 16v537q0 9 7 16t15 7h891q8 0 15 -7t7 -16v-537q0 -9 -7.5 -16
t-17.5 -7zM740 259h-464q-52 0 -87 36t-35 89q0 45 25 78.5t66 43.5q10 50 49.5 82t92.5 32q33 0 60 -11q25 42 69 66.5t96 24.5q79 0 136 -55.5t57 -132.5v-17q30 -17 47.5 -45.5t17.5 -62.5q-2 -55 -39.5 -91.5t-90.5 -36.5zM415 353q26 0 38.5 19.5t12.5 48.5
q0 31 -12.5 51t-38.5 20t-38.5 -20t-12.5 -51q0 -29 12.5 -48.5t38.5 -19.5zM415 529q44 0 69 -31t25 -77t-25 -75.5t-69 -29.5q-43 0 -68.5 30t-25.5 75q0 48 25 78t69 30zM586 398h48l-22 74zM589 526h42l72 -205h-43l-14 46h-71l-15 -46h-42z" />
    <glyph glyph-name="xiaoyuanqia" unicode="&#xe605;" horiz-adv-x="1186" 
d="M1089 723h-215v-63h154q36 0 61 -24t25 -59v-559q0 -34 -25 -58.5t-61 -24.5h-870q-35 0 -60.5 24.5t-25.5 58.5v559q0 35 25.5 59t60.5 24h154v63h-214v0q-41 0 -69.5 -28.5t-28.5 -69.5v0v-655v0q0 -41 28.5 -69.5t69.5 -28.5v0h991q40 0 68.5 28.5t28.5 69.5v655
q0 41 -28.5 69.5t-68.5 28.5zM630 424h392v-38h-392v38zM861 208h160v-38h-160v38zM859 100h160v-38h-160v38zM625 317h392v-38h-392v38zM365 770h456v-145h-456v145zM821 760h-133v41v2q0 39 -28 66.5t-67 27.5t-67 -27.5t-28 -66.5v-2v-41h-133v-92h456v92zM593 782v0
q-15 0 -26 10.5t-11 26t11 26t26 10.5v0q15 0 26 -10.5t11 -26t-11 -26t-26 -10.5zM214 243v-135h302v135q0 76 -92 103l-59 -165l-59 165q-92 -27 -92 -103zM363 343q19 0 37 22t18 50q0 73 -55.5 73t-55.5 -73q0 -28 18.5 -50t37.5 -22zM387 273l-17 57h-10l-17 -57
l22 -57z" />
    <glyph glyph-name="xiaoyuanhuanjing1" unicode="&#xe60c;" horiz-adv-x="1278" 
d="M341 336q0 28 -20 51.5t-48 28.5l-26 4q-28 5 -67.5 4.5t-67.5 -5.5l-13 -2q-27 -5 -47 -29t-20 -52v-458h309v458zM91 -89h-22v48h22v-48zM91 1h-22v64h22v-64zM91 106h-22v64h22v-64zM91 211h-22v64h22v-64zM91 316h-22q2 26 22 44v-44zM144 -89h-39v48h39v-48v0z
M144 1h-39v64h39v-64v0zM144 106h-39v64h39v-64v0zM144 211h-39v64h39v-64v0zM144 316h-39v53q8 4 15 6l10 1q6 1 14 2v-62v0zM215 -89h-57v48h57v-48zM215 1h-57v64h57v-64zM215 106h-57v64h57v-64zM215 211h-57v64h57v-64zM215 316h-57v64q30 2 57 -1v-63zM269 -89h-40v48
h40v-48zM269 1h-40v64h40v-64zM269 106h-40v64h40v-64zM269 211h-40v64h40v-64zM269 316h-40v62l1.5 -0.5t2.5 -0.5l19 -3q9 -2 17 -6v-52zM283 359q19 -18 21 -43h-21v43zM304 -89h-21v48h21v-48zM304 1h-21v64h21v-64zM304 106h-21v64h21v-64zM304 211h-21v64h21v-64z
M1246 442q0 34 -23.5 61.5t-56.5 33.5l-31 5q-34 6 -81 5.5t-80 -6.5l-15 -3q-33 -6 -57 -34t-24 -62v-564h368v564zM949 -64h-26v58h26v-58zM949 43h-26v76h26v-76zM949 168h-26v76h26v-76zM949 293h-26v77h26v-77zM949 419h-26q2 30 26 52v-52zM1012 -64h-46v58h46v-58z
M1012 43h-46v76h46v-76zM1012 168h-46v76h46v-76zM1012 293h-46v77h46v-77zM1012 419h-46v63q8 4 18 6l11 2q7 1 17 2v-73v0zM1096 -64h-68v58h68v-58zM1096 43h-68v76h68v-76zM1096 168h-68v76h68v-76zM1096 293h-68v77h68v-77zM1096 419h-68v75q16 1 32 1q18 0 36 -1v-75z
M1160 -64h-47v58h47v-58zM1160 43h-47v76h47v-76zM1160 168h-47v76h47v-76zM1160 293h-47v77h47v-77zM1160 418h-47v74l4 -1l24 -4q10 -2 19 -7v-62v0zM1177 469q23 -21 25 -50h-25v50zM1202 -64h-25v58h25v-58zM1202 43h-25v76h25v-76zM1202 168h-25v76h25v-76zM1202 293
h-25v77h25v-77zM877 733q0 50 -35 91.5t-85 49.5l-45 8q-50 8 -119.5 7.5t-119.5 -9.5l-22 -4q-49 -9 -84 -51t-35 -92v-855h545v855zM437 -16h-39v85h39v-85zM437 142h-39v113h39v-113zM437 327h-39v113h39v-113zM437 513h-39v113h39v-113zM437 699h-39q3 45 39 77v-77z
M461 792v0q13 7 27 9l17 3q11 3 25 4v-109h-69v93v0zM530 -16h-69v85h69v-85zM530 142h-69v113h69v-113zM530 327h-69v113h69v-113zM530 513h-69v113h69v-113zM655 -16h-101v85h101v-85zM655 142h-101v113h101v-113zM655 327h-101v113h101v-113zM655 513h-101v113h101v-113z
M655 699h-101v111q23 2 46 2q28 0 55 -2v-111zM679 807v0q1 0 3.5 -0.5t3.5 -0.5l35 -6q15 -3 29 -10v-91h-71v108zM750 -16h-71v85h71v-85zM750 142h-71v113h71v-113zM750 327h-71v113h71v-113zM750 513h-71v113h71v-113zM774 773q34 -31 37 -74h-37v74zM811 -16h-37v85h37
v-85zM811 142h-37v113h37v-113zM811 327h-37v113h37v-113zM811 513h-37v113h37v-113z" />
    <glyph glyph-name="xiaoyuanquanjing" unicode="&#xe62c;" horiz-adv-x="1277" 
d="M1271 610q-24 63 -152 63q-24 0 -54 -3q-71 104 -182.5 164.5t-240.5 60.5q-104 0 -199 -40.5t-163 -109t-108.5 -163t-40.5 -198.5q0 -32 5 -71q-161 -120 -130 -201q25 -63 152 -63q38 0 92 7q72 -86 174 -134.5t218 -48.5q103 0 198 40.5t163 109t108.5 163
t40.5 198.5q0 6 -1 32q151 116 120 194zM158 113q-30 0 -52 4t-30 9t-10 9q-5 14 17 42.5t68 65.5q19 -68 57 -128q-27 -2 -50 -2zM1141 491q-13 61 -41 117q12 1 19 1q31 0 52.5 -4.5t30 -9t10.5 -9.5q5 -12 -13.5 -37t-57.5 -58z" />
    <glyph glyph-name="fenxiang" unicode="&#xf0343;" 
d="M711 434h173q11 0 18 -7.5t7 -17.5v-397q0 -11 -7 -18t-18 -7h-744q-11 0 -18 7t-7 18v397q0 10 7 17.5t18 7.5h173q11 0 18 7t7 17.5t-7 17.5t-18 7h-198q-21 0 -35.5 -14.5t-14.5 -34.5v-447q0 -21 14.5 -35.5t35.5 -14.5h794q21 0 35.5 14.5t14.5 35.5v447
q0 20 -14.5 34.5t-35.5 14.5h-198q-11 0 -18 -7t-7 -17.5t7 -17.5t18 -7zM517 830q-3 1 -5 1q-3 0 -5 -1q-13 3 -23 -6l-178 -179q-7 -7 -7 -17t7.5 -17.5t17.5 -7.5t17 7l146 146v-645q0 -10 7.5 -17.5t17.5 -7.5t17.5 7.5t7.5 17.5v644l145 -145q7 -7 17 -7t17.5 7.5
t7.5 17.5t-7 17l-179 179q-9 9 -21 6z" />
    <glyph glyph-name="rili" unicode="&#xf0344;" 
d="M957 56v595q0 49 -35 84t-84 35h-59v47q0 5 -4 8.5t-9 3.5h-34q-6 0 -9.5 -3.5t-3.5 -8.5v-47h-416v47q0 5 -3.5 8.5t-8.5 3.5h-35q-5 0 -8.5 -3.5t-3.5 -8.5v-47h-60q-49 0 -84 -35t-35 -84v-595q0 -49 35 -83.5t84 -34.5h654q49 0 84 34.5t35 83.5zM125 651
q0 24 17.5 41.5t41.5 17.5h60v-47q0 -5 3.5 -8.5t8.5 -3.5h35q5 0 8.5 3.5t3.5 8.5v47h416v-47q0 -5 4 -8.5t9 -3.5h34q5 0 9 3.5t4 8.5v47h59q25 0 42 -17.5t17 -41.5v-60h-772v60zM838 -3h-654q-24 0 -41.5 17.5t-17.5 41.5v476h772v-476q0 -24 -17 -41.5t-42 -17.5z
M481 82h62v344h-46q-3 -15 -12.5 -26t-23 -18t-30 -10t-34.5 -3v-44h84v-243z" />
    <glyph glyph-name="piaofang" unicode="&#xf0345;" 
d="M530 346v56h122q8 0 13 5.5t5 13t-5 13t-13 5.5h-109l122 103q5 5 5 12.5t-5 13t-13 5.5t-13 -5l-127 -107l-127 107q-5 5 -13 5t-13 -5.5t-5 -13t5 -12.5l122 -103h-109q-8 0 -13 -5.5t-5 -13t5 -13t13 -5.5h121v-56h-121q-8 0 -13 -5.5t-5 -13t5 -13t13 -5.5h121v-93
q0 -8 5.5 -13.5t13 -5.5t13 5.5t5.5 13.5v93h122q8 0 13 5.5t5 13t-5 13t-13 5.5h-122zM959 287v-199q0 -31 -22 -53t-53 -22h-744q-31 0 -53 22t-22 53v199q43 0 72.5 29t29.5 69.5t-29.5 69t-72.5 28.5v200q0 31 22 53t53 22h744q31 0 53 -22t22 -53v-200
q-43 0 -72.5 -28.5t-29.5 -69t29.5 -69.5t72.5 -29z" />
    <glyph glyph-name="fanhui" unicode="&#xf0346;" 
d="M533 -9l-393 393l393 393q9 9 9 22.5t-9.5 23t-23 9.5t-22.5 -9l-412 -412q-11 -11 -9 -26q-2 -16 9 -28l412 -412q9 -9 22.5 -9t23 9.5t9.5 23t-9 22.5z" />
    <glyph glyph-name="rili1" unicode="&#xf0347;" 
d="M838 770h-59v47q0 5 -4 8.5t-9 3.5h-34q-6 0 -9.5 -3.5t-3.5 -8.5v-47h-416v47q0 5 -3.5 8.5t-8.5 3.5h-35q-5 0 -8.5 -3.5t-3.5 -8.5v-47h-60q-49 0 -84 -35t-35 -84v-595q0 -49 35 -83.5t84 -34.5h654q49 0 84 34.5t35 83.5v595q0 49 -35 84t-84 35zM897 56
q0 -24 -17 -41.5t-42 -17.5h-654q-24 0 -41.5 17.5t-17.5 41.5v476h772v-476zM897 591h-772v60q0 24 17.5 41.5t41.5 17.5h60v-47q0 -5 3.5 -8.5t8.5 -3.5h35q5 0 8.5 3.5t3.5 8.5v47h416v-47q0 -5 4 -8.5t9 -3.5h34q5 0 9 3.5t4 8.5v47h59q25 0 42 -17.5t17 -41.5v-60z
M537 263.5q-15 -13.5 -33 -25.5q-18 -11 -35 -23q-35 -24 -55.5 -56t-20.5 -74h235v50h-168q4 11 13 21t21.5 19.5t27.5 18.5t29.5 19.5t28.5 22.5t25 26t17 30.5t6 37.5q0 16 -5.5 34.5t-18.5 34.5t-34 26t-52 10q-29 0 -51 -10t-37 -27.5t-23 -42t-8 -52.5h56q1 18 4 33.5
t10 27t18 18.5t27 7q18 0 29.5 -6.5t18 -15.5t8.5 -19.5t2 -19.5q0 -20 -10 -35.5t-25 -29z" />
    <glyph glyph-name="gengduo" unicode="&#xf0348;" 
d="M493 -9l393 393l-393 393q-10 9 -10 22.5t9.5 23t23 9.5t22.5 -9l412 -412q11 -11 9 -26q2 -16 -9 -28l-412 -412q-9 -9 -22.5 -9t-23 9.5t-9.5 23t10 22.5z" />
    <glyph glyph-name="rili2" unicode="&#xf0349;" 
d="M526 85h53v81h44v44h-44v218h-53l-147 -206v-56h147v-81zM422 210l103 152h1v-152h-104zM838 770h-59v47q0 5 -4 8.5t-9 3.5h-34q-6 0 -9.5 -3.5t-3.5 -8.5v-47h-416v47q0 5 -3.5 8.5t-8.5 3.5h-35q-5 0 -8.5 -3.5t-3.5 -8.5v-47h-60q-49 0 -84 -35t-35 -84v-595
q0 -49 35 -83.5t84 -34.5h654q49 0 84 34.5t35 83.5v595q0 49 -35 84t-84 35zM897 56q0 -24 -17 -41.5t-42 -17.5h-654q-24 0 -41.5 17.5t-17.5 41.5v476h772v-476zM897 591h-772v60q0 24 17.5 41.5t41.5 17.5h60v-47q0 -5 3.5 -8.5t8.5 -3.5h35q5 0 8.5 3.5t3.5 8.5v47h416
v-47q0 -5 4 -8.5t9 -3.5h34q5 0 9 3.5t4 8.5v47h59q25 0 42 -17.5t17 -41.5v-60z" />
    <glyph glyph-name="rili3" unicode="&#xf034a;" 
d="M390 197q1 -27 8.5 -49t22.5 -37.5t37.5 -24t52.5 -8.5q25 0 47 7t38.5 20.5t26.5 33t10 44.5q0 33 -16.5 56.5t-45.5 29.5v1q25 9 36.5 28t11.5 45q0 23 -9.5 40.5t-24.5 28.5t-34.5 17t-39.5 6q-26 0 -47 -8.5t-35.5 -24.5t-22.5 -37.5t-9 -46.5h56q-1 14 2.5 26.5
t10.5 22.5t18 16t26 6q23 0 38 -13.5t15 -35.5q0 -16 -6.5 -26.5t-17.5 -17t-24 -8.5q-12 -2 -23 -2h-5v-42q17 1 33 -0.5t28.5 -8t20.5 -18t8 -31.5q0 -30 -19 -46t-47 -16q-33 0 -49.5 21t-15.5 52h-56zM838 770h-59v47q0 5 -4 8.5t-9 3.5h-34q-6 0 -9.5 -3.5t-3.5 -8.5
v-47h-416v47q0 5 -3.5 8.5t-8.5 3.5h-35q-5 0 -8.5 -3.5t-3.5 -8.5v-47h-60q-49 0 -84 -35t-35 -84v-595q0 -49 35 -83.5t84 -34.5h654q49 0 84 34.5t35 83.5v595q0 49 -35 84t-84 35zM897 56q0 -24 -17 -41.5t-42 -17.5h-654q-24 0 -41.5 17.5t-17.5 41.5v476h772v-476z
M897 591h-772v60q0 24 17.5 41.5t41.5 17.5h60v-47q0 -5 3.5 -8.5t8.5 -3.5h35q5 0 8.5 3.5t3.5 8.5v47h416v-47q0 -5 4 -8.5t9 -3.5h34q5 0 9 3.5t4 8.5v47h59q25 0 42 -17.5t17 -41.5v-60z" />
    <glyph glyph-name="rili4" unicode="&#xf034b;" 
d="M561.5 146.5q-7.5 -10.5 -20 -16.5t-29.5 -6q-28 0 -44.5 15t-19.5 43h-56q1 -26 10.5 -45.5t26 -32.5t38 -19.5t46.5 -6.5q31 0 53.5 11.5t37 29.5t21 39.5t6.5 42.5q0 24 -7 45.5t-20.5 37t-34 24t-45.5 8.5q-17 0 -34.5 -6.5t-29.5 -19.5v1l17 87h136v50h-178
l-36 -188h56q6 18 21.5 25t33.5 7q17 0 29.5 -6t20.5 -16t11.5 -23t3.5 -27q0 -16 -3 -29.5t-10.5 -24zM838 770h-59v47q0 5 -4 8.5t-9 3.5h-34q-6 0 -9.5 -3.5t-3.5 -8.5v-47h-416v47q0 5 -3.5 8.5t-8.5 3.5h-35q-5 0 -8.5 -3.5t-3.5 -8.5v-47h-60q-49 0 -84 -35t-35 -84
v-595q0 -49 35 -83.5t84 -34.5h654q49 0 84 34.5t35 83.5v595q0 49 -35 84t-84 35zM897 56q0 -24 -17 -41.5t-42 -17.5h-654q-24 0 -41.5 17.5t-17.5 41.5v476h772v-476zM897 591h-772v60q0 24 17.5 41.5t41.5 17.5h60v-47q0 -5 3.5 -8.5t8.5 -3.5h35q5 0 8.5 3.5t3.5 8.5
v47h416v-47q0 -5 4 -8.5t9 -3.5h34q5 0 9 3.5t4 8.5v47h59q25 0 42 -17.5t17 -41.5v-60z" />
    <glyph glyph-name="rili5" unicode="&#xf034c;" 
d="M527 314q-23 -34 -40.5 -71.5t-28.5 -77.5t-14 -80h61q4 46 14.5 87t26.5 77.5t38.5 69t49.5 63.5v46h-236v-50h179q-27 -30 -50 -64zM838 770h-59v47q0 5 -4 8.5t-9 3.5h-34q-6 0 -9.5 -3.5t-3.5 -8.5v-47h-416v47q0 5 -3.5 8.5t-8.5 3.5h-35q-5 0 -8.5 -3.5t-3.5 -8.5
v-47h-60q-49 0 -84 -35t-35 -84v-595q0 -49 35 -83.5t84 -34.5h654q49 0 84 34.5t35 83.5v595q0 49 -35 84t-84 35zM897 56q0 -24 -17 -41.5t-42 -17.5h-654q-24 0 -41.5 17.5t-17.5 41.5v476h772v-476zM897 591h-772v60q0 24 17.5 41.5t41.5 17.5h60v-47q0 -5 3.5 -8.5
t8.5 -3.5h35q5 0 8.5 3.5t3.5 8.5v47h416v-47q0 -5 4 -8.5t9 -3.5h34q5 0 9 3.5t4 8.5v47h59q25 0 42 -17.5t17 -41.5v-60z" />
    <glyph glyph-name="rili6" unicode="&#xf034d;" 
d="M408 240q-17 -22 -17 -54q0 -25 9 -45.5t25.5 -34.5t39 -21t48.5 -7t48 7t38.5 21t25.5 34.5t9 45.5q0 32 -17 54t-46 30v1q24 9 36.5 27t12.5 43q0 45 -28 69.5t-79.5 24.5t-79 -24.5t-27.5 -69.5q0 -25 12.5 -43t35.5 -27v-1q-29 -8 -46 -30zM474.5 377.5
q15.5 13.5 38 13.5t38.5 -13.5t16 -39.5q0 -24 -15.5 -37t-39 -13t-38.5 13t-15 37q0 26 15.5 39.5zM466 230q19 16 47 16t46.5 -16t18.5 -44q0 -31 -18.5 -47.5t-46.5 -16.5t-47 16.5t-19 47.5q0 28 19 44zM838 770h-59v47q0 5 -4 8.5t-9 3.5h-34q-6 0 -9.5 -3.5t-3.5 -8.5
v-47h-416v47q0 5 -3.5 8.5t-8.5 3.5h-35q-5 0 -8.5 -3.5t-3.5 -8.5v-47h-60q-49 0 -84 -35t-35 -84v-595q0 -49 35 -83.5t84 -34.5h654q49 0 84 34.5t35 83.5v595q0 49 -35 84t-84 35zM897 56q0 -24 -17 -41.5t-42 -17.5h-654q-24 0 -41.5 17.5t-17.5 41.5v476h772v-476z
M897 591h-772v60q0 24 17.5 41.5t41.5 17.5h60v-47q0 -5 3.5 -8.5t8.5 -3.5h35q5 0 8.5 3.5t3.5 8.5v47h416v-47q0 -5 4 -8.5t9 -3.5h34q5 0 9 3.5t4 8.5v47h59q25 0 42 -17.5t17 -41.5v-60z" />
    <glyph glyph-name="rili7" unicode="&#xf034e;" 
d="M365 85h61v343h-46q-2 -15 -12 -26t-23.5 -18t-30 -10t-34.5 -3v-44h85v-242zM638 85h61v343h-45q-3 -15 -13 -26t-23.5 -18t-30 -10t-34.5 -3v-44h85v-242zM838 770h-59v47q0 5 -4 8.5t-9 3.5h-34q-6 0 -9.5 -3.5t-3.5 -8.5v-47h-416v47q0 5 -3.5 8.5t-8.5 3.5h-35
q-5 0 -8.5 -3.5t-3.5 -8.5v-47h-60q-49 0 -84 -35t-35 -84v-595q0 -49 35 -83.5t84 -34.5h654q49 0 84 34.5t35 83.5v595q0 49 -35 84t-84 35zM897 56q0 -24 -17 -41.5t-42 -17.5h-654q-24 0 -41.5 17.5t-17.5 41.5v476h772v-476zM897 591h-772v60q0 24 17.5 41.5t41.5 17.5
h60v-47q0 -5 3.5 -8.5t8.5 -3.5h35q5 0 8.5 3.5t3.5 8.5v47h416v-47q0 -5 4 -8.5t9 -3.5h34q5 0 9 3.5t4 8.5v47h59q25 0 42 -17.5t17 -41.5v-60z" />
    <glyph glyph-name="rili8" unicode="&#xf034f;" 
d="M422.5 234q14.5 -15 34.5 -23.5t44 -8.5t43.5 10.5t30.5 30.5l1 -1q-1 -17 -3.5 -37.5t-10 -38.5t-21 -30t-36.5 -12q-22 0 -35 13t-15 34h-56q1 -21 10 -38t23 -29.5t32 -19t39 -6.5q36 0 61 16t40 42t21.5 57t6.5 62q0 38 -5 71t-18.5 57t-37.5 38t-60 14
q-28 0 -50 -8.5t-37.5 -24.5t-23 -37.5t-7.5 -46.5q0 -27 7.5 -48t22 -36zM452.5 345q3.5 13 11 22.5t18.5 15.5t27 6q15 0 27 -6t19.5 -15.5t11.5 -22.5t4 -27t-4 -27t-11.5 -23t-19.5 -16t-27 -6q-16 0 -27 6t-18.5 16t-11 23t-3.5 27t3.5 27zM838 770h-59v47q0 5 -4 8.5
t-9 3.5h-34q-6 0 -9.5 -3.5t-3.5 -8.5v-47h-416v47q0 5 -3.5 8.5t-8.5 3.5h-35q-5 0 -8.5 -3.5t-3.5 -8.5v-47h-60q-49 0 -84 -35t-35 -84v-595q0 -49 35 -83.5t84 -34.5h654q49 0 84 34.5t35 83.5v595q0 49 -35 84t-84 35zM897 56q0 -24 -17 -41.5t-42 -17.5h-654
q-24 0 -41.5 17.5t-17.5 41.5v476h772v-476zM897 591h-772v60q0 24 17.5 41.5t41.5 17.5h60v-47q0 -5 3.5 -8.5t8.5 -3.5h35q5 0 8.5 3.5t3.5 8.5v47h416v-47q0 -5 4 -8.5t9 -3.5h34q5 0 9 3.5t4 8.5v47h59q25 0 42 -17.5t17 -41.5v-60z" />
    <glyph glyph-name="rili9" unicode="&#xf0350;" 
d="M339 85h62v343h-46q-3 -15 -12.5 -26t-23 -18t-30.5 -10t-34 -3v-44h84v-242zM665 263.5q-15 -13.5 -34 -25.5q-17 -11 -34 -23q-35 -24 -55.5 -56t-20.5 -74h235v50h-168q4 11 13 21t21.5 19.5t27.5 18.5t29.5 19.5t28.5 22.5t24.5 26t17 30.5t6.5 37.5q0 16 -5.5 34.5
t-18.5 34.5t-34 26t-52 10q-29 0 -51 -10t-37 -27.5t-23 -42t-8 -52.5h56q1 18 4 33.5t9.5 27t18 18.5t27.5 7q18 0 29.5 -6.5t18 -15.5t8.5 -19.5t2 -19.5q0 -20 -10 -35.5t-25 -29zM838 770h-59v47q0 5 -4 8.5t-9 3.5h-34q-6 0 -9.5 -3.5t-3.5 -8.5v-47h-416v47
q0 5 -3.5 8.5t-8.5 3.5h-35q-5 0 -8.5 -3.5t-3.5 -8.5v-47h-60q-49 0 -84 -35t-35 -84v-595q0 -49 35 -83.5t84 -34.5h654q49 0 84 34.5t35 83.5v595q0 49 -35 84t-84 35zM897 56q0 -24 -17 -41.5t-42 -17.5h-654q-24 0 -41.5 17.5t-17.5 41.5v476h772v-476zM897 591h-772
v60q0 24 17.5 41.5t41.5 17.5h60v-47q0 -5 3.5 -8.5t8.5 -3.5h35q5 0 8.5 3.5t3.5 8.5v47h416v-47q0 -5 4 -8.5t9 -3.5h34q5 0 9 3.5t4 8.5v47h59q25 0 42 -17.5t17 -41.5v-60z" />
    <glyph glyph-name="rili10" unicode="&#xf0351;" 
d="M345 85h62v343h-46q-3 -15 -12.5 -26t-23 -18t-30 -10t-34.5 -3v-44h84v-242zM548 138q13 -26 36.5 -43t60 -17t60 17t36.5 43t17.5 57.5t4.5 61t-4.5 61t-17.5 57.5t-36.5 43t-60 17t-60 -17t-36.5 -43t-17.5 -57.5t-4.5 -61t4.5 -61t17.5 -57.5zM584.5 307
q2.5 24 10 42t19.5 29t30 11q19 0 31 -11t19 -29t10 -42t3 -51t-3 -51t-10 -42t-19 -28.5t-31 -10.5q-18 0 -30 10.5t-19.5 28.5t-10 42t-2.5 51t2.5 51zM838 770h-59v47q0 5 -4 8.5t-9 3.5h-34q-6 0 -9.5 -3.5t-3.5 -8.5v-47h-416v47q0 5 -3.5 8.5t-8.5 3.5h-35
q-5 0 -8.5 -3.5t-3.5 -8.5v-47h-60q-49 0 -84 -35t-35 -84v-595q0 -49 35 -83.5t84 -34.5h654q49 0 84 34.5t35 83.5v595q0 49 -35 84t-84 35zM897 56q0 -24 -17 -41.5t-42 -17.5h-654q-24 0 -41.5 17.5t-17.5 41.5v476h772v-476zM897 591h-772v60q0 24 17.5 41.5t41.5 17.5
h60v-47q0 -5 3.5 -8.5t8.5 -3.5h35q5 0 8.5 3.5t3.5 8.5v47h416v-47q0 -5 4 -8.5t9 -3.5h34q5 0 9 3.5t4 8.5v47h59q25 0 42 -17.5t17 -41.5v-60z" />
    <glyph glyph-name="rili11" unicode="&#xf0352;" 
d="M339 85h62v343h-46q-3 -15 -12.5 -26t-23 -18t-30.5 -10t-34 -3v-44h84v-242zM517 197q0 -27 8 -49t23 -37.5t37.5 -24t52.5 -8.5q24 0 46.5 7t39 20.5t26.5 33t10 44.5q0 33 -16.5 56.5t-46.5 29.5v1q25 9 37 28t12 45q0 23 -9.5 40.5t-25 28.5t-35 17t-39.5 6
q-26 0 -46.5 -8.5t-35 -24.5t-23 -37.5t-9.5 -46.5h56q0 14 3.5 26.5t10.5 22.5t18 16t25 6q24 0 39 -13.5t15 -35.5q0 -16 -6.5 -26.5t-17.5 -17t-25 -8.5q-11 -2 -23 -2h-4v-42q17 1 32.5 -0.5t28.5 -8t21 -18t8 -31.5q0 -30 -19 -46t-47 -16q-33 0 -49.5 21t-15.5 52h-56
zM838 770h-59v47q0 5 -4 8.5t-9 3.5h-34q-6 0 -9.5 -3.5t-3.5 -8.5v-47h-416v47q0 5 -3.5 8.5t-8.5 3.5h-35q-5 0 -8.5 -3.5t-3.5 -8.5v-47h-60q-49 0 -84 -35t-35 -84v-595q0 -49 35 -83.5t84 -34.5h654q49 0 84 34.5t35 83.5v595q0 49 -35 84t-84 35zM897 56
q0 -24 -17 -41.5t-42 -17.5h-654q-24 0 -41.5 17.5t-17.5 41.5v476h772v-476zM897 591h-772v60q0 24 17.5 41.5t41.5 17.5h60v-47q0 -5 3.5 -8.5t8.5 -3.5h35q5 0 8.5 3.5t3.5 8.5v47h416v-47q0 -5 4 -8.5t9 -3.5h34q5 0 9 3.5t4 8.5v47h59q25 0 42 -17.5t17 -41.5v-60z" />
    <glyph glyph-name="rili12" unicode="&#xf0353;" 
d="M339 85h62v343h-46q-3 -15 -12.5 -26t-23 -18t-30.5 -10t-34 -3v-44h84v-242zM661 85h53v81h44v44h-44v218h-53l-147 -206v-56h147v-81zM557 210l103 152h1v-152h-104zM838 770h-59v47q0 5 -4 8.5t-9 3.5h-34q-6 0 -9.5 -3.5t-3.5 -8.5v-47h-416v47q0 5 -3.5 8.5
t-8.5 3.5h-35q-5 0 -8.5 -3.5t-3.5 -8.5v-47h-60q-49 0 -84 -35t-35 -84v-595q0 -49 35 -83.5t84 -34.5h654q49 0 84 34.5t35 83.5v595q0 49 -35 84t-84 35zM897 56q0 -24 -17 -41.5t-42 -17.5h-654q-24 0 -41.5 17.5t-17.5 41.5v476h772v-476zM897 591h-772v60
q0 24 17.5 41.5t41.5 17.5h60v-47q0 -5 3.5 -8.5t8.5 -3.5h35q5 0 8.5 3.5t3.5 8.5v47h416v-47q0 -5 4 -8.5t9 -3.5h34q5 0 9 3.5t4 8.5v47h59q25 0 42 -17.5t17 -41.5v-60z" />
    <glyph glyph-name="rili13" unicode="&#xf0354;" 
d="M418 130q14 -24 38 -38t62 -14q26 0 47 8.5t36 24.5t23 37.5t8 46.5t-7 46t-21 36.5t-34.5 24t-45.5 8.5q-23 0 -43 -10t-31 -30l-1 1q1 11 2 24t4 26.5t7.5 25.5t12.5 21t19 15t26 6q22 0 35 -13t15 -35h56q-1 22 -10 39t-23 29t-32 19t-39 7q-36 0 -61 -16t-40 -42
t-21.5 -57.5t-6.5 -62.5q0 -37 5.5 -70t19.5 -57zM458 223q4 13 12 22.5t19.5 15t26.5 5.5t26.5 -6t19 -15.5t11 -22t3.5 -26.5t-3.5 -27t-11 -22.5t-19 -16t-26.5 -6.5t-26.5 6t-19.5 16t-12 23t-4 27t4 27zM838 770h-59v47q0 5 -4 8.5t-9 3.5h-34q-6 0 -9.5 -3.5
t-3.5 -8.5v-47h-416v47q0 5 -3.5 8.5t-8.5 3.5h-35q-5 0 -8.5 -3.5t-3.5 -8.5v-47h-60q-49 0 -84 -35t-35 -84v-595q0 -49 35 -83.5t84 -34.5h654q49 0 84 34.5t35 83.5v595q0 49 -35 84t-84 35zM897 56q0 -24 -17 -41.5t-42 -17.5h-654q-24 0 -41.5 17.5t-17.5 41.5v476
h772v-476zM897 591h-772v60q0 24 17.5 41.5t41.5 17.5h60v-47q0 -5 3.5 -8.5t8.5 -3.5h35q5 0 8.5 3.5t3.5 8.5v47h416v-47q0 -5 4 -8.5t9 -3.5h34q5 0 9 3.5t4 8.5v47h59q25 0 42 -17.5t17 -41.5v-60z" />
    <glyph glyph-name="rili14" unicode="&#xf0355;" 
d="M334 85h61v343h-45q-3 -15 -12.5 -26t-23 -18t-30.5 -10t-34 -3v-44h84v-242zM683 146.5q-8 -10.5 -20 -16.5t-30 -6q-27 0 -44 15t-19 43h-56q1 -26 10.5 -45.5t25.5 -32.5t37.5 -19.5t46.5 -6.5q32 0 54.5 11.5t37 29.5t21 39.5t6.5 42.5q0 24 -7 45.5t-21 37t-34 24
t-46 8.5q-17 0 -34.5 -6.5t-28.5 -19.5l-1 1l18 87h136v50h-178l-37 -188h56q7 18 22.5 25t33.5 7q16 0 28.5 -6t20.5 -16t12 -23t4 -27q0 -16 -3 -29.5t-11 -24zM838 770h-59v47q0 5 -4 8.5t-9 3.5h-34q-6 0 -9.5 -3.5t-3.5 -8.5v-47h-416v47q0 5 -3.5 8.5t-8.5 3.5h-35
q-5 0 -8.5 -3.5t-3.5 -8.5v-47h-60q-49 0 -84 -35t-35 -84v-595q0 -49 35 -83.5t84 -34.5h654q49 0 84 34.5t35 83.5v595q0 49 -35 84t-84 35zM897 56q0 -24 -17 -41.5t-42 -17.5h-654q-24 0 -41.5 17.5t-17.5 41.5v476h772v-476zM897 591h-772v60q0 24 17.5 41.5t41.5 17.5
h60v-47q0 -5 3.5 -8.5t8.5 -3.5h35q5 0 8.5 3.5t3.5 8.5v47h416v-47q0 -5 4 -8.5t9 -3.5h34q5 0 9 3.5t4 8.5v47h59q25 0 42 -17.5t17 -41.5v-60z" />
    <glyph glyph-name="rili15" unicode="&#xf0356;" 
d="M334 85h61v343h-45q-3 -15 -12.5 -26t-23 -18t-30.5 -10t-34 -3v-44h84v-242zM643 314q-23 -34 -40.5 -71.5t-29 -77.5t-13.5 -80h61q3 46 13.5 87t27 77.5t38.5 69t49 63.5v46h-235v-50h178q-26 -30 -49 -64zM838 770h-59v47q0 5 -4 8.5t-9 3.5h-34q-6 0 -9.5 -3.5
t-3.5 -8.5v-47h-416v47q0 5 -3.5 8.5t-8.5 3.5h-35q-5 0 -8.5 -3.5t-3.5 -8.5v-47h-60q-49 0 -84 -35t-35 -84v-595q0 -49 35 -83.5t84 -34.5h654q49 0 84 34.5t35 83.5v595q0 49 -35 84t-84 35zM897 56q0 -24 -17 -41.5t-42 -17.5h-654q-24 0 -41.5 17.5t-17.5 41.5v476
h772v-476zM897 591h-772v60q0 24 17.5 41.5t41.5 17.5h60v-47q0 -5 3.5 -8.5t8.5 -3.5h35q5 0 8.5 3.5t3.5 8.5v47h416v-47q0 -5 4 -8.5t9 -3.5h34q5 0 9 3.5t4 8.5v47h59q25 0 42 -17.5t17 -41.5v-60z" />
    <glyph glyph-name="rili16" unicode="&#xf0357;" 
d="M334 85h61v343h-45q-3 -15 -12.5 -26t-23 -18t-30.5 -10t-34 -3v-44h84v-242zM538 130q14 -24 38.5 -38t62.5 -14q25 0 46 8.5t36.5 24.5t23.5 37.5t8 46.5t-7.5 46t-21.5 36.5t-34 24t-45 8.5q-24 0 -43.5 -10t-31.5 -30l-1 1q1 11 2.5 24t4.5 26.5t7.5 25.5t12 21
t18.5 15t27 6q22 0 35 -13t15 -35h56q-1 22 -10 39t-23 29t-32 19t-39 7q-36 0 -61 -16t-40 -42t-22 -57.5t-7 -62.5q0 -37 5.5 -70t19.5 -57zM579 223q4 13 11.5 22.5t19 15t27 5.5t26.5 -6t19 -15.5t11.5 -22t3.5 -26.5t-3.5 -27t-11.5 -22.5t-19 -16t-26.5 -6.5t-27 6
t-19 16t-11.5 23t-4 27t4 27zM838 770h-59v47q0 5 -4 8.5t-9 3.5h-34q-6 0 -9.5 -3.5t-3.5 -8.5v-47h-416v47q0 5 -3.5 8.5t-8.5 3.5h-35q-5 0 -8.5 -3.5t-3.5 -8.5v-47h-60q-49 0 -84 -35t-35 -84v-595q0 -49 35 -83.5t84 -34.5h654q49 0 84 34.5t35 83.5v595q0 49 -35 84
t-84 35zM897 56q0 -24 -17 -41.5t-42 -17.5h-654q-24 0 -41.5 17.5t-17.5 41.5v476h772v-476zM897 591h-772v60q0 24 17.5 41.5t41.5 17.5h60v-47q0 -5 3.5 -8.5t8.5 -3.5h35q5 0 8.5 3.5t3.5 8.5v47h416v-47q0 -5 4 -8.5t9 -3.5h34q5 0 9 3.5t4 8.5v47h59q25 0 42 -17.5
t17 -41.5v-60z" />
    <glyph glyph-name="rili17" unicode="&#xf0358;" 
d="M334 85h61v343h-45q-3 -15 -12.5 -26t-23 -18t-30.5 -10t-34 -3v-44h84v-242zM529 240q-17 -22 -17 -54q0 -25 9 -45.5t25 -34.5t38.5 -21t48.5 -7t48.5 7t38.5 21t25.5 34.5t9.5 45.5q0 32 -17 54t-46 30v1q23 9 35.5 27t12.5 43q0 45 -27.5 69.5t-79 24.5t-79.5 -24.5
t-28 -69.5q0 -25 12.5 -43t36.5 -27v-1q-29 -8 -46 -30zM595 377.5q16 13.5 38.5 13.5t38 -13.5t15.5 -39.5q0 -24 -15 -37t-38.5 -13t-39 13t-15.5 37q0 26 16 39.5zM586.5 230q18.5 16 46.5 16t47 -16t19 -44q0 -31 -19 -47.5t-47 -16.5t-46.5 16.5t-18.5 47.5
q0 28 18.5 44zM838 770h-59v47q0 5 -4 8.5t-9 3.5h-34q-6 0 -9.5 -3.5t-3.5 -8.5v-47h-416v47q0 5 -3.5 8.5t-8.5 3.5h-35q-5 0 -8.5 -3.5t-3.5 -8.5v-47h-60q-49 0 -84 -35t-35 -84v-595q0 -49 35 -83.5t84 -34.5h654q49 0 84 34.5t35 83.5v595q0 49 -35 84t-84 35zM897 56
q0 -24 -17 -41.5t-42 -17.5h-654q-24 0 -41.5 17.5t-17.5 41.5v476h772v-476zM897 591h-772v60q0 24 17.5 41.5t41.5 17.5h60v-47q0 -5 3.5 -8.5t8.5 -3.5h35q5 0 8.5 3.5t3.5 8.5v47h416v-47q0 -5 4 -8.5t9 -3.5h34q5 0 9 3.5t4 8.5v47h59q25 0 42 -17.5t17 -41.5v-60z" />
    <glyph glyph-name="rili18" unicode="&#xf0359;" 
d="M334 85h61v343h-45q-3 -15 -12.5 -26t-23 -18t-30.5 -10t-34 -3v-44h84v-242zM543.5 234q14.5 -15 34 -23.5t44.5 -8.5q24 0 43.5 10.5t30.5 30.5l1 -1q-1 -17 -4 -37.5t-10.5 -38.5t-21 -30t-35.5 -12t-35 13t-15 34h-56q1 -21 9.5 -38t22.5 -29.5t32.5 -19t38.5 -6.5
q37 0 61.5 16t40 42t22 57t6.5 62q0 38 -5.5 71t-19 57t-37 38t-59.5 14q-28 0 -50 -8.5t-37.5 -24.5t-23.5 -37.5t-8 -46.5q0 -27 8 -48t22.5 -36zM573 345q4 13 11 22.5t18.5 15.5t26.5 6q16 0 28 -6t19.5 -15.5t11.5 -22.5t4 -27t-4 -27t-11.5 -23t-19.5 -16t-28 -6
q-15 0 -26.5 6t-18.5 16t-11 23t-4 27t4 27zM838 770h-59v47q0 5 -4 8.5t-9 3.5h-34q-6 0 -9.5 -3.5t-3.5 -8.5v-47h-416v47q0 5 -3.5 8.5t-8.5 3.5h-35q-5 0 -8.5 -3.5t-3.5 -8.5v-47h-60q-49 0 -84 -35t-35 -84v-595q0 -49 35 -83.5t84 -34.5h654q49 0 84 34.5t35 83.5
v595q0 49 -35 84t-84 35zM897 56q0 -24 -17 -41.5t-42 -17.5h-654q-24 0 -41.5 17.5t-17.5 41.5v476h772v-476zM897 591h-772v60q0 24 17.5 41.5t41.5 17.5h60v-47q0 -5 3.5 -8.5t8.5 -3.5h35q5 0 8.5 3.5t3.5 8.5v47h416v-47q0 -5 4 -8.5t9 -3.5h34q5 0 9 3.5t4 8.5v47h59
q25 0 42 -17.5t17 -41.5v-60z" />
    <glyph glyph-name="rili19" unicode="&#xf035a;" 
d="M433.5 270.5q-15.5 -13.5 -33.5 -24.5q-18 -12 -35 -24q-34 -24 -54.5 -56t-20.5 -74h235v50h-168q4 11 13 21t21.5 19.5t27.5 18.5t29.5 19.5t28.5 22.5t24.5 26t17 30.5t6.5 37.5q0 16 -5.5 34.5t-18.5 34.5t-34 26t-52 10q-29 0 -51 -10t-37.5 -27.5t-23 -42
t-7.5 -52.5h56q1 18 4 33.5t9.5 27t17.5 18.5t28 7q18 0 29.5 -6.5t18 -15.5t8.5 -19.5t2 -19.5q0 -20 -10 -35.5t-25.5 -29zM654 92h62v343h-46q-3 -15 -12.5 -26t-23 -18t-30.5 -9.5t-34 -2.5v-45h84v-242zM838 770h-59v47q0 5 -4 8.5t-9 3.5h-34q-6 0 -9.5 -3.5
t-3.5 -8.5v-47h-416v47q0 5 -3.5 8.5t-8.5 3.5h-35q-5 0 -8.5 -3.5t-3.5 -8.5v-47h-60q-49 0 -84 -35t-35 -84v-595q0 -49 35 -83.5t84 -34.5h654q49 0 84 34.5t35 83.5v595q0 49 -35 84t-84 35zM897 56q0 -24 -17 -41.5t-42 -17.5h-654q-24 0 -41.5 17.5t-17.5 41.5v476
h772v-476zM897 591h-772v60q0 24 17.5 41.5t41.5 17.5h60v-47q0 -5 3.5 -8.5t8.5 -3.5h35q5 0 8.5 3.5t3.5 8.5v47h416v-47q0 -5 4 -8.5t9 -3.5h34q5 0 9 3.5t4 8.5v47h59q25 0 42 -17.5t17 -41.5v-60z" />
    <glyph glyph-name="rili20" unicode="&#xf035b;" 
d="M402 270.5q-15 -13.5 -33 -24.5q-18 -12 -35 -24q-35 -24 -55 -56t-21 -74h235v50h-168q4 11 13 21t22 19.5t27.5 18.5t29.5 19.5t28.5 22.5t24.5 26t17 30.5t6 37.5q0 16 -5 34.5t-18 34.5t-34.5 26t-52.5 10q-29 0 -51 -10t-37 -27.5t-23 -42t-8 -52.5h56q1 18 4 33.5
t10 27t18 18.5t27 7q19 0 30 -6.5t17.5 -15.5t8.5 -19.5t2 -19.5q0 -20 -10 -35.5t-25 -29zM552 145q13 -26 36.5 -43t60 -17t60 17t36.5 43t17.5 57.5t4.5 61t-4.5 61t-17.5 57.5t-36.5 43t-60 17t-60 -17t-36.5 -43t-17.5 -57.5t-4.5 -61t4.5 -61t17.5 -57.5zM589 314.5
q3 23.5 10 42t19 29t31 10.5q18 0 30 -10.5t19.5 -29t10 -42t2.5 -50.5t-2.5 -51.5t-10 -42t-19.5 -28.5t-30 -11q-19 0 -31 11t-19 28.5t-10 42t-3 51.5t3 50.5zM838 770h-59v47q0 5 -4 8.5t-9 3.5h-34q-6 0 -9.5 -3.5t-3.5 -8.5v-47h-416v47q0 5 -3.5 8.5t-8.5 3.5h-35
q-5 0 -8.5 -3.5t-3.5 -8.5v-47h-60q-49 0 -84 -35t-35 -84v-595q0 -49 35 -83.5t84 -34.5h654q49 0 84 34.5t35 83.5v595q0 49 -35 84t-84 35zM897 56q0 -24 -17 -41.5t-42 -17.5h-654q-24 0 -41.5 17.5t-17.5 41.5v476h772v-476zM897 591h-772v60q0 24 17.5 41.5t41.5 17.5
h60v-47q0 -5 3.5 -8.5t8.5 -3.5h35q5 0 8.5 3.5t3.5 8.5v47h416v-47q0 -5 4 -8.5t9 -3.5h34q5 0 9 3.5t4 8.5v47h59q25 0 42 -17.5t17 -41.5v-60z" />
    <glyph glyph-name="rili21" unicode="&#xf035c;" 
d="M399 270.5q-15 -13.5 -33 -24.5q-18 -12 -35 -24q-35 -24 -55.5 -56t-20.5 -74h235v50h-168q4 11 13 21t21.5 19.5t27.5 18.5t29.5 19.5t28.5 22.5t25 26t17 30.5t6 37.5q0 16 -5.5 34.5t-18.5 34.5t-34 26t-52 10q-29 0 -51 -10t-37 -27.5t-23 -42t-8 -52.5h56
q1 18 4 33.5t10 27t18 18.5t27 7q18 0 29.5 -6.5t18 -15.5t8.5 -19.5t2 -19.5q0 -20 -10 -35.5t-25 -29zM668 92h53v81h44v44h-44v218h-53l-147 -206v-56h147v-81zM564 217l103 152h1v-152h-104zM838 770h-59v47q0 5 -4 8.5t-9 3.5h-34q-6 0 -9.5 -3.5t-3.5 -8.5v-47h-416
v47q0 5 -3.5 8.5t-8.5 3.5h-35q-5 0 -8.5 -3.5t-3.5 -8.5v-47h-60q-49 0 -84 -35t-35 -84v-595q0 -49 35 -83.5t84 -34.5h654q49 0 84 34.5t35 83.5v595q0 49 -35 84t-84 35zM897 56q0 -24 -17 -41.5t-42 -17.5h-654q-24 0 -41.5 17.5t-17.5 41.5v476h772v-476zM897 591
h-772v60q0 24 17.5 41.5t41.5 17.5h60v-47q0 -5 3.5 -8.5t8.5 -3.5h35q5 0 8.5 3.5t3.5 8.5v47h416v-47q0 -5 4 -8.5t9 -3.5h34q5 0 9 3.5t4 8.5v47h59q25 0 42 -17.5t17 -41.5v-60z" />
    <glyph glyph-name="rili22" unicode="&#xf035d;" 
d="M399 270.5q-15 -13.5 -33 -24.5q-18 -12 -35 -24q-35 -24 -55.5 -56t-20.5 -74h235v50h-168q4 11 13 21t21.5 19.5t27.5 18.5t29.5 19.5t28.5 22.5t25 26t17 30.5t6 37.5q0 16 -5.5 34.5t-18.5 34.5t-34 26t-52 10q-29 0 -51 -10t-37 -27.5t-23 -42t-8 -52.5h56
q1 18 4 33.5t10 27t18 18.5t27 7q18 0 29.5 -6.5t18 -15.5t8.5 -19.5t2 -19.5q0 -20 -10 -35.5t-25 -29zM672 270.5q-15 -13.5 -33 -24.5q-18 -12 -35 -24q-35 -24 -55 -56t-21 -74h235v50h-168q4 11 13 21t22 19.5t27.5 18.5t29.5 19.5t28.5 22.5t24.5 26t17 30.5t6 37.5
q0 16 -5 34.5t-18 34.5t-34.5 26t-52.5 10q-29 0 -51 -10t-37 -27.5t-23 -42t-8 -52.5h56q1 18 4 33.5t10 27t18 18.5t27 7q19 0 30 -6.5t17.5 -15.5t8.5 -19.5t2 -19.5q0 -20 -10 -35.5t-25 -29zM838 770h-59v47q0 5 -4 8.5t-9 3.5h-34q-6 0 -9.5 -3.5t-3.5 -8.5v-47h-416
v47q0 5 -3.5 8.5t-8.5 3.5h-35q-5 0 -8.5 -3.5t-3.5 -8.5v-47h-60q-49 0 -84 -35t-35 -84v-595q0 -49 35 -83.5t84 -34.5h654q49 0 84 34.5t35 83.5v595q0 49 -35 84t-84 35zM897 56q0 -24 -17 -41.5t-42 -17.5h-654q-24 0 -41.5 17.5t-17.5 41.5v476h772v-476zM897 591
h-772v60q0 24 17.5 41.5t41.5 17.5h60v-47q0 -5 3.5 -8.5t8.5 -3.5h35q5 0 8.5 3.5t3.5 8.5v47h416v-47q0 -5 4 -8.5t9 -3.5h34q5 0 9 3.5t4 8.5v47h59q25 0 42 -17.5t17 -41.5v-60z" />
    <glyph glyph-name="rili23" unicode="&#xf035e;" 
d="M399 270.5q-15 -13.5 -33 -24.5q-18 -12 -35 -24q-35 -24 -55.5 -56t-20.5 -74h235v50h-168q4 11 13 21t21.5 19.5t27.5 18.5t29.5 19.5t28.5 22.5t25 26t17 30.5t6 37.5q0 16 -5.5 34.5t-18.5 34.5t-34 26t-52 10q-29 0 -51 -10t-37 -27.5t-23 -42t-8 -52.5h56
q1 18 4 33.5t10 27t18 18.5t27 7q18 0 29.5 -6.5t18 -15.5t8.5 -19.5t2 -19.5q0 -20 -10 -35.5t-25 -29zM695.5 153.5q-7.5 -10.5 -20 -16.5t-30.5 -6q-27 0 -43.5 15t-19.5 43h-56q1 -26 10.5 -45t26 -32.5t37.5 -20t46 -6.5q32 0 54.5 11.5t37 29.5t21 39.5t6.5 42.5
q0 25 -7 46t-20.5 36.5t-34 24t-45.5 8.5q-17 0 -34.5 -6.5t-29.5 -19.5l-1 1l18 87h136v50h-178l-36 -188h56q6 19 21.5 25.5t33.5 6.5q17 0 29.5 -6t20 -16t11.5 -23t4 -27q0 -16 -3 -29.5t-10.5 -24zM838 770h-59v47q0 5 -4 8.5t-9 3.5h-34q-6 0 -9.5 -3.5t-3.5 -8.5v-47
h-416v47q0 5 -3.5 8.5t-8.5 3.5h-35q-5 0 -8.5 -3.5t-3.5 -8.5v-47h-60q-49 0 -84 -35t-35 -84v-595q0 -49 35 -83.5t84 -34.5h654q49 0 84 34.5t35 83.5v595q0 49 -35 84t-84 35zM897 56q0 -24 -17 -41.5t-42 -17.5h-654q-24 0 -41.5 17.5t-17.5 41.5v476h772v-476z
M897 591h-772v60q0 24 17.5 41.5t41.5 17.5h60v-47q0 -5 3.5 -8.5t8.5 -3.5h35q5 0 8.5 3.5t3.5 8.5v47h416v-47q0 -5 4 -8.5t9 -3.5h34q5 0 9 3.5t4 8.5v47h59q25 0 42 -17.5t17 -41.5v-60z" />
    <glyph glyph-name="rili24" unicode="&#xf035f;" 
d="M399 270.5q-15 -13.5 -33 -24.5q-18 -12 -35 -24q-35 -24 -55.5 -56t-20.5 -74h235v50h-168q4 11 13 21t21.5 19.5t27.5 18.5t29.5 19.5t28.5 22.5t25 26t17 30.5t6 37.5q0 16 -5.5 34.5t-18.5 34.5t-34 26t-52 10q-29 0 -51 -10t-37 -27.5t-23 -42t-8 -52.5h56
q1 18 4 33.5t10 27t18 18.5t27 7q18 0 29.5 -6.5t18 -15.5t8.5 -19.5t2 -19.5q0 -20 -10 -35.5t-25 -29zM524 205q1 -27 8.5 -49.5t22.5 -38t37.5 -24t52.5 -8.5q25 0 47 7.5t38.5 21t26.5 32.5t10 44q0 33 -16.5 56.5t-46.5 29.5v1q25 9 37 28t12 46q0 22 -9.5 39.5t-25 29
t-34.5 17t-39 5.5q-27 0 -47.5 -8.5t-35 -24.5t-22.5 -37t-9 -47h56q-1 14 2.5 26.5t10.5 22.5t18 16t26 6q23 0 38 -13.5t15 -35.5q0 -16 -6.5 -26.5t-17.5 -17t-25 -8.5q-11 -2 -22 -2h-5v-42q17 1 33 -0.5t28.5 -7.5t20.5 -18t8 -32q0 -30 -19 -46t-47 -16
q-33 0 -49.5 21t-15.5 53h-56zM838 770h-59v47q0 5 -4 8.5t-9 3.5h-34q-6 0 -9.5 -3.5t-3.5 -8.5v-47h-416v47q0 5 -3.5 8.5t-8.5 3.5h-35q-5 0 -8.5 -3.5t-3.5 -8.5v-47h-60q-49 0 -84 -35t-35 -84v-595q0 -49 35 -83.5t84 -34.5h654q49 0 84 34.5t35 83.5v595q0 49 -35 84
t-84 35zM897 56q0 -24 -17 -41.5t-42 -17.5h-654q-24 0 -41.5 17.5t-17.5 41.5v476h772v-476zM897 591h-772v60q0 24 17.5 41.5t41.5 17.5h60v-47q0 -5 3.5 -8.5t8.5 -3.5h35q5 0 8.5 3.5t3.5 8.5v47h416v-47q0 -5 4 -8.5t9 -3.5h34q5 0 9 3.5t4 8.5v47h59q25 0 42 -17.5
t17 -41.5v-60z" />
    <glyph glyph-name="rili25" unicode="&#xf0360;" 
d="M399 270.5q-15 -13.5 -33 -24.5q-18 -12 -35 -24q-35 -24 -55.5 -56t-20.5 -74h235v50h-168q4 11 13 21t21.5 19.5t27.5 18.5t29.5 19.5t28.5 22.5t25 26t17 30.5t6 37.5q0 16 -5.5 34.5t-18.5 34.5t-34 26t-52 10q-29 0 -51 -10t-37 -27.5t-23 -42t-8 -52.5h56
q1 18 4 33.5t10 27t18 18.5t27 7q18 0 29.5 -6.5t18 -15.5t8.5 -19.5t2 -19.5q0 -20 -10 -35.5t-25 -29zM655 321q-23 -34 -40.5 -71.5t-28.5 -77.5t-14 -80h61q4 46 14 87t26.5 77.5t38.5 69t49 63.5v46h-235v-50h178q-26 -30 -49 -64zM838 770h-59v47q0 5 -4 8.5t-9 3.5
h-34q-6 0 -9.5 -3.5t-3.5 -8.5v-47h-416v47q0 5 -3.5 8.5t-8.5 3.5h-35q-5 0 -8.5 -3.5t-3.5 -8.5v-47h-60q-49 0 -84 -35t-35 -84v-595q0 -49 35 -83.5t84 -34.5h654q49 0 84 34.5t35 83.5v595q0 49 -35 84t-84 35zM897 56q0 -24 -17 -41.5t-42 -17.5h-654
q-24 0 -41.5 17.5t-17.5 41.5v476h772v-476zM897 591h-772v60q0 24 17.5 41.5t41.5 17.5h60v-47q0 -5 3.5 -8.5t8.5 -3.5h35q5 0 8.5 3.5t3.5 8.5v47h416v-47q0 -5 4 -8.5t9 -3.5h34q5 0 9 3.5t4 8.5v47h59q25 0 42 -17.5t17 -41.5v-60z" />
    <glyph glyph-name="rili26" unicode="&#xf0361;" 
d="M399 270.5q-15 -13.5 -33 -24.5q-18 -12 -35 -24q-35 -24 -55.5 -56t-20.5 -74h235v50h-168q4 11 13 21t21.5 19.5t27.5 18.5t29.5 19.5t28.5 22.5t25 26t17 30.5t6 37.5q0 16 -5.5 34.5t-18.5 34.5t-34 26t-52 10q-29 0 -51 -10t-37 -27.5t-23 -42t-8 -52.5h56
q1 18 4 33.5t10 27t18 18.5t27 7q18 0 29.5 -6.5t18 -15.5t8.5 -19.5t2 -19.5q0 -20 -10 -35.5t-25 -29zM550 137q14 -24 38.5 -38t62.5 -14q25 0 46.5 8.5t36.5 24.5t23 37.5t8 46.5t-7 46t-21 36.5t-34.5 24.5t-45.5 9q-23 0 -43 -10.5t-31 -30.5l-1 1q1 11 2 24t4 26.5
t7.5 25.5t12.5 21t19 15t26 6q22 0 35 -13t15 -34h56q-1 21 -10 38t-23 29.5t-32 19t-39 6.5q-36 0 -61 -16t-40 -42t-21.5 -57t-6.5 -62q0 -38 5 -71t19 -57zM591 230q4 13 12 22.5t19.5 15t26.5 5.5t26.5 -5.5t19 -15.5t11 -22.5t3.5 -26.5t-3.5 -27t-11 -22.5t-19 -16
t-26.5 -6.5t-26.5 6t-19.5 16t-12 23t-4 27t4 27zM838 770h-59v47q0 5 -4 8.5t-9 3.5h-34q-6 0 -9.5 -3.5t-3.5 -8.5v-47h-416v47q0 5 -3.5 8.5t-8.5 3.5h-35q-5 0 -8.5 -3.5t-3.5 -8.5v-47h-60q-49 0 -84 -35t-35 -84v-595q0 -49 35 -83.5t84 -34.5h654q49 0 84 34.5
t35 83.5v595q0 49 -35 84t-84 35zM897 56q0 -24 -17 -41.5t-42 -17.5h-654q-24 0 -41.5 17.5t-17.5 41.5v476h772v-476zM897 591h-772v60q0 24 17.5 41.5t41.5 17.5h60v-47q0 -5 3.5 -8.5t8.5 -3.5h35q5 0 8.5 3.5t3.5 8.5v47h416v-47q0 -5 4 -8.5t9 -3.5h34q5 0 9 3.5
t4 8.5v47h59q25 0 42 -17.5t17 -41.5v-60z" />
    <glyph glyph-name="rili27" unicode="&#xf0362;" 
d="M399 270.5q-15 -13.5 -33 -24.5q-18 -12 -35 -24q-35 -24 -55.5 -56t-20.5 -74h235v50h-168q4 11 13 21t21.5 19.5t27.5 18.5t29.5 19.5t28.5 22.5t25 26t17 30.5t6 37.5q0 16 -5.5 34.5t-18.5 34.5t-34 26t-52 10q-29 0 -51 -10t-37 -27.5t-23 -42t-8 -52.5h56
q1 18 4 33.5t10 27t18 18.5t27 7q18 0 29.5 -6.5t18 -15.5t8.5 -19.5t2 -19.5q0 -20 -10 -35.5t-25 -29zM555.5 241q14.5 -15 34.5 -23.5t44 -8.5t43.5 10.5t30.5 30.5l1 -1q-1 -17 -4 -37.5t-10 -38t-20.5 -30t-36.5 -12.5q-22 0 -35 13t-15 35h-56q1 -22 10 -39t23 -29
t32 -19t39 -7q36 0 61 16t40 42t21.5 57.5t6.5 62.5q0 37 -5 70t-18.5 57t-37.5 38t-60 14q-28 0 -50 -8.5t-37.5 -24.5t-23 -37.5t-7.5 -46.5q0 -27 7.5 -48t22 -36zM585.5 352q3.5 13 11 22.5t18.5 15.5t27 6q15 0 27 -6t19.5 -15.5t11.5 -22.5t4 -27t-4 -27t-11.5 -23
t-19.5 -16t-27 -6q-16 0 -27 6.5t-18.5 16t-11 22.5t-3.5 27t3.5 27zM838 770h-59v47q0 5 -4 8.5t-9 3.5h-34q-6 0 -9.5 -3.5t-3.5 -8.5v-47h-416v47q0 5 -3.5 8.5t-8.5 3.5h-35q-5 0 -8.5 -3.5t-3.5 -8.5v-47h-60q-49 0 -84 -35t-35 -84v-595q0 -49 35 -83.5t84 -34.5h654
q49 0 84 34.5t35 83.5v595q0 49 -35 84t-84 35zM897 56q0 -24 -17 -41.5t-42 -17.5h-654q-24 0 -41.5 17.5t-17.5 41.5v476h772v-476zM897 591h-772v60q0 24 17.5 41.5t41.5 17.5h60v-47q0 -5 3.5 -8.5t8.5 -3.5h35q5 0 8.5 3.5t3.5 8.5v47h416v-47q0 -5 4 -8.5t9 -3.5h34
q5 0 9 3.5t4 8.5v47h59q25 0 42 -17.5t17 -41.5v-60z" />
    <glyph glyph-name="rili28" unicode="&#xf0363;" 
d="M399 270.5q-15 -13.5 -33 -24.5q-18 -12 -35 -24q-35 -24 -55.5 -56t-20.5 -74h235v50h-168q4 11 13 21t21.5 19.5t27.5 18.5t29.5 19.5t28.5 22.5t25 26t17 30.5t6 37.5q0 16 -5.5 34.5t-18.5 34.5t-34 26t-52 10q-29 0 -51 -10t-37 -27.5t-23 -42t-8 -52.5h56
q1 18 4 33.5t10 27t18 18.5t27 7q18 0 29.5 -6.5t18 -15.5t8.5 -19.5t2 -19.5q0 -20 -10 -35.5t-25 -29zM541 247q-17 -22 -17 -54q0 -25 9 -45t25.5 -34t38.5 -21.5t48.5 -7.5t48.5 7.5t38.5 21.5t25.5 34t9 45q0 32 -17 54t-46 30v1q24 9 36.5 27.5t12.5 43.5
q0 44 -28 68.5t-79.5 24.5t-79.5 -24.5t-28 -68.5q0 -25 12.5 -43.5t36.5 -27.5v-1q-29 -8 -46 -30zM607 384.5q16 13.5 38.5 13.5t38.5 -13.5t16 -38.5t-15.5 -38t-39 -13t-39 13t-15.5 38t16 38.5zM598.5 237q18.5 16 46.5 16t47 -16t19 -44q0 -31 -19 -47.5t-47 -16.5
t-46.5 16.5t-18.5 47.5q0 28 18.5 44zM838 770h-59v47q0 5 -4 8.5t-9 3.5h-34q-6 0 -9.5 -3.5t-3.5 -8.5v-47h-416v47q0 5 -3.5 8.5t-8.5 3.5h-35q-5 0 -8.5 -3.5t-3.5 -8.5v-47h-60q-49 0 -84 -35t-35 -84v-595q0 -49 35 -83.5t84 -34.5h654q49 0 84 34.5t35 83.5v595
q0 49 -35 84t-84 35zM897 56q0 -24 -17 -41.5t-42 -17.5h-654q-24 0 -41.5 17.5t-17.5 41.5v476h772v-476zM897 591h-772v60q0 24 17.5 41.5t41.5 17.5h60v-47q0 -5 3.5 -8.5t8.5 -3.5h35q5 0 8.5 3.5t3.5 8.5v47h416v-47q0 -5 4 -8.5t9 -3.5h34q5 0 9 3.5t4 8.5v47h59
q25 0 42 -17.5t17 -41.5v-60z" />
    <glyph glyph-name="shangjiantou" unicode="&#xf0364;" 
d="M66 161l446 446l446 -446h-892z" />
    <glyph glyph-name="rili29" unicode="&#xf0365;" 
d="M286 205q0 -27 8 -49.5t23 -38t37.5 -24t52.5 -8.5q24 0 46 7.5t39 21t27 32.5t10 44q0 33 -16.5 56.5t-46.5 29.5v1q25 9 37 28t12 46q0 22 -9.5 39.5t-25 29t-35 17t-39.5 5.5q-26 0 -46.5 -8.5t-35 -24.5t-23 -37t-9.5 -47h56q0 14 3.5 26.5t10.5 22.5t17.5 16t25.5 6
q24 0 39 -13.5t15 -35.5q0 -16 -6.5 -26.5t-17.5 -17t-25 -8.5q-11 -2 -23 -2h-4v-42q16 1 32 -0.5t29 -7.5t21 -18t8 -32q0 -30 -19 -46t-47 -16q-33 0 -49.5 21t-15.5 53h-56zM654 92h62v343h-46q-3 -15 -12.5 -26t-23 -18t-30.5 -9.5t-34 -2.5v-45h84v-242zM838 770h-59
v47q0 5 -4 8.5t-9 3.5h-34q-6 0 -9.5 -3.5t-3.5 -8.5v-47h-416v47q0 5 -3.5 8.5t-8.5 3.5h-35q-5 0 -8.5 -3.5t-3.5 -8.5v-47h-60q-49 0 -84 -35t-35 -84v-595q0 -49 35 -83.5t84 -34.5h654q49 0 84 34.5t35 83.5v595q0 49 -35 84t-84 35zM897 56q0 -24 -17 -41.5t-42 -17.5
h-654q-24 0 -41.5 17.5t-17.5 41.5v476h772v-476zM897 591h-772v60q0 24 17.5 41.5t41.5 17.5h60v-47q0 -5 3.5 -8.5t8.5 -3.5h35q5 0 8.5 3.5t3.5 8.5v47h416v-47q0 -5 4 -8.5t9 -3.5h34q5 0 9 3.5t4 8.5v47h59q25 0 42 -17.5t17 -41.5v-60z" />
    <glyph glyph-name="xiajiantou" unicode="&#xf0366;" 
d="M66 607l446 -446l446 446h-892z" />
    <glyph glyph-name="rili30" unicode="&#xf0367;" 
d="M251 205q1 -27 8.5 -49.5t22.5 -38t37.5 -24t52.5 -8.5q24 0 46.5 7.5t39 21t26.5 32.5t10 44q0 33 -16.5 56.5t-46.5 29.5v1q25 9 37 28t12 46q0 22 -9.5 39.5t-25 29t-34.5 17t-40 5.5q-26 0 -46.5 -8.5t-35 -24.5t-23 -37t-9.5 -47h56q0 14 3.5 26.5t10.5 22.5t18 16
t25 6q24 0 39 -13.5t15 -35.5q0 -16 -6.5 -26.5t-17.5 -17t-25 -8.5q-11 -2 -23 -2h-4v-42q17 1 32.5 -0.5t28.5 -7.5t21 -18t8 -32q0 -30 -19 -46t-47 -16q-33 0 -49.5 21t-15.5 53h-56zM549 145q13 -26 36.5 -43t60 -17t60 17t36.5 43t17.5 57.5t4.5 61t-4.5 61
t-17.5 57.5t-36.5 43t-60 17t-60 -17t-36.5 -43t-17.5 -57.5t-4.5 -61t4.5 -61t17.5 -57.5zM586 314.5q3 23.5 10 42t19 29t30 10.5q19 0 31 -10.5t19 -29t10 -42t3 -50.5t-3 -51.5t-10 -42t-19 -28.5t-31 -11q-18 0 -30 11t-19 28.5t-10 42t-3 51.5t3 50.5zM838 770h-59v47
q0 5 -4 8.5t-9 3.5h-34q-6 0 -9.5 -3.5t-3.5 -8.5v-47h-416v47q0 5 -3.5 8.5t-8.5 3.5h-35q-5 0 -8.5 -3.5t-3.5 -8.5v-47h-60q-49 0 -84 -35t-35 -84v-595q0 -49 35 -83.5t84 -34.5h654q49 0 84 34.5t35 83.5v595q0 49 -35 84t-84 35zM897 56q0 -24 -17 -41.5t-42 -17.5
h-654q-24 0 -41.5 17.5t-17.5 41.5v476h772v-476zM897 591h-772v60q0 24 17.5 41.5t41.5 17.5h60v-47q0 -5 3.5 -8.5t8.5 -3.5h35q5 0 8.5 3.5t3.5 8.5v47h416v-47q0 -5 4 -8.5t9 -3.5h34q5 0 9 3.5t4 8.5v47h59q25 0 42 -17.5t17 -41.5v-60z" />
    <glyph glyph-name="youjiantou" unicode="&#xf0368;" 
d="M289 830l446 -446l-446 -446v892z" />
    <glyph glyph-name="zhushi" unicode="&#xf0369;" 
d="M513 585zM446 585q0 -28 19.5 -47.5t47.5 -19.5t47.5 19.5t19.5 47.5t-19.5 47.5t-47.5 19.5t-47.5 -19.5t-19.5 -47.5zM468 429h90v-313h-90v313zM513 831q-91 0 -173.5 -35.5t-142.5 -95.5t-95.5 -142.5t-35.5 -173.5t35.5 -173.5t95.5 -142.5t142.5 -95.5t173.5 -35.5
t173.5 35.5t142.5 95.5t95.5 142.5t35.5 173.5t-35.5 173.5t-95.5 142.5t-142.5 95.5t-173.5 35.5zM513 -18q-109 0 -202 53.5t-146.5 146.5t-53.5 202t53.5 202t146.5 146.5t202 53.5t202 -53.5t146.5 -146.5t53.5 -202t-53.5 -202t-146.5 -146.5t-202 -53.5z" />
    <glyph glyph-name="zuojiantou" unicode="&#xf036a;" 
d="M735 830l-446 -446l446 -446v892z" />
    <glyph glyph-name="wode" unicode="&#xf036b;" 
d="M513 495zM364 495q0 -62 43.5 -105.5t105.5 -43.5t105.5 43.5t43.5 105.5t-43.5 105.5t-105.5 43.5t-105.5 -43.5t-43.5 -105.5zM513 831q-91 0 -174 -35.5t-143 -95.5t-95 -143t-35 -174t35 -174t95 -143t143 -95t174 -35t174 35t143 95t95 143t35 174t-35 174t-95 143
t-143 95.5t-174 35.5zM785 76q8 32 8 65q0 74 -36.5 137.5t-97.5 100.5q-26 -33 -64 -52t-82 -19t-82 19t-64 52q-61 -37 -97.5 -100.5t-36.5 -137.5q0 -33 8 -65q-65 58 -101.5 137.5t-36.5 169.5q0 111 55 205.5t149.5 149.5t205.5 55t205.5 -55t149.5 -149.5t55 -205.5
q0 -90 -36.5 -169.5t-101.5 -137.5z" />
    <glyph glyph-name="ziliaoku" unicode="&#xf036c;" 
d="M878 364h-732q-34 0 -58 -24t-24 -58v-244q0 -34 24 -57.5t58 -23.5h732q34 0 58 23.5t24 57.5v244q0 34 -24 58t-58 24zM578 124h-163q-8 0 -14 6t-6 14.5t6 14.5t14 6h163q9 0 14.5 -6t5.5 -14.5t-6 -14.5t-14 -6zM878 811h-732q-34 0 -58 -23.5t-24 -57.5v-244
q0 -34 24 -58t58 -24h732q34 0 58 24t24 58v244q0 34 -24 57.5t-58 23.5zM578 572h-163q-8 0 -14 6t-6 14.5t6 14.5t14 6h163q9 0 14.5 -6t5.5 -14.5t-6 -14.5t-14 -6z" />
    <glyph glyph-name="xiaoyuanzhifu1" unicode="&#xe649;" horiz-adv-x="1025" 
d="M981 304l-665 -310q-27 -13 -56.5 -2t-42.5 39l-210 449q-13 28 -2 57.5t39 42.5l665 309q27 13 56.5 2t42.5 -39l210 -449q13 -27 2 -56.5t-39 -42.5zM905 645l-799 -375l-51 105l801 372zM871 520l-296 -139l-23 45l296 139zM473 -128h318q5 5 13.5 14t30 43.5t37 75.5
t26.5 111.5t7 150.5l-518 -242q4 -11 11 -29.5t29.5 -59.5t45.5 -64zM513 82l278 131q-1 0 -14 -17t-36 -38.5t-54 -42t-77.5 -31t-96.5 -2.5zM623 -48q-29 -16 -62.5 -5.5t-47.5 42.5l-148 281q-16 29 -5.5 62.5t42.5 48.5q29 15 62.5 4.5t48.5 -41.5l144 -282
q17 -30 7 -61.5t-41 -48.5zM473 278l-29 -14q-12 -7 -27.5 -2t-23.5 19l-8 17q-7 13 -2.5 28t19.5 23l28 15q13 6 28 1.5t23 -18.5l9 -17q7 -15 2 -30t-19 -22v0z" />
    <glyph glyph-name="xiaoyuan1" unicode="&#xe655;" 
d="M1003 478q-1 5 -3 9q-10 21 -33 23l-432 198q-12 9 -27 9t-27 -9l-432 -198q-23 -2 -33 -23q-4 -8 -4 -18v-0.5v-1.5q0 -9 4 -17q10 -21 33 -24l128 -58l-1 -317q0 -21 17 -34v0q59 -57 135 -89.5t160 -35.5h38q86 3 164 37.5t137 93.5v1q11 11 11 27l-1 316l130 59
q23 3 33 24q2 4 3 9v19zM754 68q-106 -94 -248 -94q-141 0 -247 93v263l222 -102q12 -9 27 -8q15 -1 27 8l220 101zM508 306l-353 162l353 163l354 -163z" />
    <glyph glyph-name="xiaoyuanqia1" unicode="&#xe61a;" 
d="M1 174q0 -48 34 -82t82 -34h790q48 0 82.5 34t34.5 82v414h-1024zM70 519h884v-345q0 -20 -14 -34t-34 -14h-789q-20 0 -34 14t-14 34zM907 863h-790q-48 0 -82 -34.5t-34 -82.5l-1 -124h1024v124q0 48 -34.5 82.5t-82.5 34.5zM70 691l-1 55q0 20 14 34t34 14h789
q20 0 34 -14t14 -34v-55h-884zM412 267h-241v-69h241v69v0zM618 405h-447v-69h447v69v0zM618 405z" />
    <glyph glyph-name="school" unicode="&#xe63c;" 
d="M505 344l-243 80v-207q52 -39 107 -59t101.5 -22.5t91 4.5t78.5 21t60 28t39.5 23.5t13.5 10.5v209zM902 173q0 28 -12.5 56t-29.5 32v281l99 35l-454 190l-443 -206l443 -145l335 119v-276q-15 -5 -26 -32.5t-11 -53.5q0 -45 28 -65l-9 -68l22 31l8 -72l13 69l35 -38
l-24 80q26 21 26 63z" />
    <glyph glyph-name="xiaoyuanhuodong" unicode="&#xe516;" horiz-adv-x="1381" 
d="M59 281q0 4 4 14q6 14 6 21v4q-5 -2 -6 -3q-4 -2 -6 -2l-21 -21l-21 -10h-2q-13 0 -13 14q6 29 34 45q-2 -3 1 -5q13 9 22 20q0 3 3 5.5t4 5.5q2 2 9 25q1 5 1 9q-1 11 -5 38q-2 11 -2 12q-5 2 -18 6q-15 4 -21 8q-6 2 -10 6q-3 4 -4 6q-1 11 20 22q5 3 8 6h7q8 0 11 4
q2 1 4 7q2 8 12 8q11 0 15 -14q1 -7 6 -10q1 -4 8 -5h4q0 -2 10 -6q10 -5 11 -5q2 1 6 7q5 6 10 11q1 1 15 4q17 3 17 6q-2 1 -2 4q0 11 9 12q7 0 17 -9q7 -7 11 -7q5 -3 22 -2l2 -1h4q4 1 7 1q29 -4 32 -22q0 -17 -22 -18h-2q-1 -2 -3 -2q-7 -3 -15 -4q-3 -2 -15 -3
q-37 -3 -37 -10q-1 -4 3 -8t4 -7q0 -6 -11 -21q-4 -11 -10 -42q-1 -10 -1 -13v-1q5 -13 29 -20q6 0 10 17q3 13 7 13q3 0 7 -7h1q2 -7 3 -20q0 -15 4 -21q2 -6 14 -11q3 -1 5 -1q2 -3 8 -7q6 -6 14 -9q3 -3 8 -4q31 -10 31 -20q-1 -10 -15 -11h-14q-28 0 -46 7q-5 0 -14 7
q-17 11 -22.5 11t-4.5 -1l-38 -14q-24 -10 -28 -10h-7q-5 -1 -7 -1q-10 1 -10 3q28 30 55 46q1 0 1 -4.5t-5 -6.5q-4 -5 -4 -6h1q13 10 18 13q1 1 3 5q-1 4 -8 13q-10 11 -10 18q-6 -6 -11 -4q-12 0 -12 7q2 15 27 73l6 32q0 8 14 11q12 3 15 8q-17 2 -31 3t-24 3h-1
q-4 -3 -11 -6q-27 -12 -27 -23v-21q-3 -14 -4 -20v-3q3 -22 7 -29q1 -6 11 -11q14 -6 14 -13q-1 -7 -3 -11q-2 -3 -8 -7h-17q-4 -3 -5 -21v-14q-2 -9 1 -13q-4 -15 -11 -32q-7 -6 -13 -6q-14 0 -14 20v8q-1 2 -1 10zM228 368q-17 32 -17 68v16q3 5 6 5q7 0 8 -2l24 -44
q0 -7 4 -15q0 -6 9 -11h3q11 -17 12 -30q-3 -18 -12 -18q-20 0 -34 24q-1 1 -1 3t-2 4zM596 368q-4 11 -2 22q-2 10 1 28.5t3 29.5q3 18 -16 15q-1 0 -7 -1q-7 -2 -7 0h-15q-6 -2 -14 0q-10 1 -14 1q-11 0 -29 -8q-16 -6 -24 -6q-2 -1 -4 0l-3 1h-3q-6 0 -11 -2
q-7 -3 -11 -2q0 -12 7 -33t7 -31q0 -7 -7 -18q-6 -12 -6 -16q-1 -5 3 -4h5q3 1 5 1t4 -2q3 -2 5 -2h3q6 0 18 3q33 4 51 11h33q10 -3 14 -15q-1 -14 -19 -14q-3 -2 -4 0q-3 1 -5 1q-8 0 -7 -7q2 -14 12 -14q2 -1 6.5 1.5t8.5 2.5q6 0 11 -5q0 -2 2 -4l-7 -7q-2 -2 -21 -6
h-10q-14 0 -17 3q-6 4 -6 7v25q-1 1 -9 1q-9 -1 -12 -2q0 -3 -1 -6v-3q0 -40 -38 -35h-10q-1 0 -4 3q3 4 4 6q3 8 10 12q2 0 7 2q11 2 11 11q0 1 -4 4q-1 0 -1 1q-23 -4 -32 3q-2 2 -2 3q-3 -4 -4 -15q-1 -6 -1 -7q-2 -4 -7 -13q-7 -10 -7 -15t8 -5q11 0 29 5q3 0 5 1
q15 1 30 1q12 0 23 2h15q21 3 24 3h8q23 1 26 -7q2 -16 -72 -17q-7 0 -19 3h-16q-21 1 -29 -6q-3 1 -17 0q-16 -1 -17 -1q-4 0 -8 -3q-9 -4 -13 -4q-21 3 -21 15v1q4 7 4 10q2 6 5 11q22 45 22 72q0 5 -3 17q-1 16 0 25q-1 0 2 7q1 7 1 8v13q0 21 -7 39q-1 1 -3 6q-3 4 -3 7
l2 4q-2 14 -7 22q-10 2 -10 6q0 5 8 7h31q2 0 10 -4q4 -5 10 -5q3 2 5 2q10 0 33 1q15 1 36 3l17 -1q15 -2 17 0q2 0 5 -1.5t16 -3.5h14l5 -1q6 -3 7 -1q4 -2 11 5q6 6 10 7q23 -1 24 -28v-10q-10 -5 -15 -42q-2 -11 -3 -16v-24q-1 -11 -1 -21q0 -21 2 -42v-6q2 -1 3 -3
q1 -7 4 -14q2 -5 3 -15q1 -8 3 -13q0 -1 1 -5q3 -6 4 -6v-5q0 -13 -18 -28h-1q-7 0 -13 14q-1 1 -1 2q-18 34 -16 114zM515 365l-26 3q-6 0 -16 7q-10 8 -15 10v3q0 9 11 14q4 1 7 2h25l7 -2q11 -3 14 -3q3 -2 14 -3q18 -2 26.5 -6.5t8.5 -13.5q0 -18 -33 -16q-5 1 -6 1
q-13 -2 -17 4zM767 326q-4 0 -8 -1.5t-7 0.5h-7q-14 9 -14 23q1 21 14 23q3 0 5.5 -3t6.5 -2q3 -1 9 -1q5 1 8 -7l2 -1q2 1 4 1q22 0 26 -25q0 -3 2 -6v-1q-11 -7 -24 -10q0 8 -17 10zM732 268q0 16 27 27q12 6 18 10q1 -3 1 -4q0 -3 -1 -5q-3 -1 -1 -2l12 4q21 8 24 8
q3 -1 4 -10q0 -16 -14 -18q-11 0 -14 -5l-22 -10q-4 0 -11 -2q-9 -1 -13 -1q-11 0 -10 8zM759 498v10l-2 1q-1 18 13 18q17 -5 38 -22q11 -17 14 -22q0 -2 -2 -3q0 -6 5 -7v-6q-6 -39 -16 -40h-1q-2 0 -4.5 1t-4 7t-1.5 8q-3 2 -8 7q-16 13 -20 23q-3 3 -4 11q-3 11 -7 14z
M841 270q-1 5 2 15t3 17q-2 6 -6 20q-6 15 -6 25q0 17 12 18q5 0 12 -11q7 -13 14 -11q2 -2 4 1l-1 3h14q3 10 4 14q2 7 2 11v7q0 14 -2 21l-1 1h-10q-27 -1 -49 -8l-4 -4q-4 -4 -7 -3q-10 0 -11 17q-2 26 14 26h1q7 -1 10 -1q5 -1 18 6q11 5 18 5q-1 -5 7 -4q6 0 7 3
q-3 5 -3 7q-15 4 -18 5h-3q-4 5 -8 6l-18 18q-4 0 -3 13q0 5 7 7q1 0 6 -1q2 -2 5 0q3 0 7 1q3 0 6 1h29q2 0 7 2q10 2 13 0q4 -2 15 1q10 3 16 3q2 0 9 -3q7 -1 10 -1t7 4l-3 3h5q18 -3 21 -21q0 -2 -2 -5q-1 -1 0 -2q-1 -2 -5 -9l-6 -8q-1 0 -3 -2l-1 -1q-9 -3 -23 -4
q-16 -3 -28 -3h-4l-1 1q-6 0 -7 -4q0 -8 11 -8q1 1 3 1q8 0 17 3q14 -1 19 -4q0 -2 2 -2q7 -2 18 -2q18 1 28 -10q1 -3 1 -6q0 -4 2 -5q-3 -10 -21 -13h-7q-7 -1 -10 3h-17q-1 0 -6 1q-23 0 -33 -3q-2 0 -4 -15l-3 -11q-4 -10 -3 -20v-8q0 -4 6 -4h1q0 -2 12.5 -0.5
t14.5 1.5h1q4 0 14 -1q10 -3 15 -2q5 0 12 4q4 5 7 5q1 -2 2 -2q0 -1 5 -3v-18q0 -4 1 -8q0 -4 1 -11q3 -6 3 -7q0 -3 -1.5 -4.5t0.5 -2.5q0 -3 1 -5q-1 -15 -7 -26q-1 -3 -5 -3v1q-12 0 -14.5 4.5t-5.5 4.5q-6 0 -11 -4q-3 -2 -6 -2q-10 -3 -29 -3h-16q-9 -1 -11 -1h-5
q-12 1 -12 3q0 19 13 21q4 0 7 -2q7 -1 8.5 -1t9.5 1h16q25 0 36 6q-3 3 -1 7q-2 4 2 11q5 6 5 10v4l-3 -1h-13l-1 1q-4 -4 -24 -4q-3 0 -4 1h-2q-11 -8 -22 -5q-3 -6 -17 -9q-12 -7 -17 -15q-2 -5 -2 -18q1 -24 -14 -24q-7 1 -7 4l-2 3q-1 1 -4 1q-7 5 -6 16zM1274 371
q-3 -19 -8 -21q-3 0 -7 1l-3 3h-9q-14 4 -19 4h-3l-4 -1q-3 0 -11 1h-5q-14 0 -16 -7h-14q-2 0 -2 -7q-1 -10 -3 -11q-1 -3 -2 -4q-6 -5 -5 -9q0 -2 0.5 -2.5t2.5 -0.5q25 5 42 13q2 1 3 10q3 14 10 14q5 0 15 -10q6 -4 9 -4q1 -2 2 1q0 -1 3 -9.5t4 -8.5q0 -3 2 -10
q-6 -11 -14 -12q-7 0 -10 4q-1 -2 -4 0l-3 1q-4 0 -10 -3q-7 -2 -10 -1h-5l-3 1h-1q-3 -4 -3 -5q-6 -6 -17 -9q-6 -1 -8 -2q-5 -2 -12 -7q-4 -5 -7 -5q-7 -4 -12 -5q-13 -3 -21 -11h-2q-11 0 -9 12q0 20 9 25q2 2 6 3q8 2 8 13v25h-18q-2 -1 -7 -4t-8 -3q-17 0 -17 24
q1 3 1 4v11l3 4q9 5 11 6q24 14 42 17q3 0 6 1q6 3 10 3h25q4 1 7 4h31q0 -1 2.5 -2.5t4.5 -1.5l32 -3q15 -5 21 -26zM1105 478q-2 13 8 17l7 3q7 1 8 3q2 0 3 1h2l4 -1q4 -2 5 0q5 0 13 3q13 4 24 4q5 0 18 -3q11 -1 25 0q2 -1 7 -3q9 -1 11 -3q0 -2 9 -9q3 -3 4 -3
q-1 -4 1 -9q3 -5 3 -8q-3 -14 -12 -15q-6 0 -14 1q-7 1 -10 1q-7 0 -17 -1q-11 -3 -17 -1q-7 0 -12 5q-13 -7 -35 -11q-31 4 -35 29zM1264 259q6 10 17 22q0 9 6 22v3q-2 3 1 6q6 25 6 56q-5 27 -12 27q-1 -2 -5 -5q-18 -3 -16 16q0 10 4 14.5t12 3.5q10 0 12 4q0 6 2 7v13
q5 8 15 8q18 -4 21 -17q0 -2 -1 -2q1 -6 4 -6q0 -2 1 -6q0 -1 7 -4q3 -1 11.5 -6.5t12.5 -5.5q2 -2 6 -3q10 -2 11 -7q0 -2 -1 -3q-2 -7 4 -7v-7q-2 -16 -3 -32l-1 -2q-5 -7 -10 -26q-13 -54 -35 -51q-6 -1 -6 2v8q0 21 4 32q0 2 2 3q22 34 26 53q0 13 -8 13q-13 0 -17 -4
q-5 -5 -7 -21v-7q-8 -44 -21 -70q-3 -5 -7 -9l-5 -5v-2q-5 -15 -23 -15h-5q-3 5 -2 10z" />
    <glyph glyph-name="xiaoyuanxinwen1" unicode="&#xe63d;" 
d="M512 846q-94 0 -179.5 -37t-147.5 -98.5t-98.5 -147t-36.5 -179.5t37 -179.5t98.5 -147t147 -98.5t179.5 -37t179.5 37t147 98.5t98.5 147t37 179.5t-37 179.5t-98.5 147t-147 98.5t-179.5 37zM441.5 168.5q-26.5 -24.5 -62 -23t-59.5 27.5t-22 61.5t28.5 59.5t62.5 23
t59.5 -27t21.5 -61.5t-28.5 -60zM584 183q-12 94 -74 163q-66 73 -165 91v68q129 -19 215 -113q80 -88 92 -209h-68zM753 183q-11 161 -117 277q-116 127 -291 146v68q98 -9 186 -51.5t155 -116.5q124 -135 134 -323h-67v0z" />
    <glyph glyph-name="xiaoyuan2" unicode="&#xe609;" 
d="M513.5 484q-44.5 0 -76 -31.5t-31.5 -75.5t31.5 -75t76 -31t76 31t31.5 75t-31.5 75.5t-76 31.5zM514 312q-27 0 -46.5 19t-19.5 46t19 46.5t46.5 19.5t47 -19.5t19.5 -46.5t-19.5 -46t-46.5 -19zM207 164h48v-71h-48v71zM207 54h48v-70h-48v70zM578 126h-130
q-10 0 -17 -7t-7 -17v-0.5v-0.5v0v0v-157q0 -10 7 -17t17 -7t17 7t7 17v134h83v-134q0 -10 7 -17t17 -7t17 7t7 17v157v0q0 7 -4 13q-7 12 -21 12v0zM772 164h48v-71h-48v71zM772 54h48v-70h-48v70zM951 379h-232v111l-49 25v-572q0 -9 7 -16t17 -7t17.5 7t7.5 16v292h232
q10 0 17.5 7t7.5 17v96q0 10 -7.5 17t-17.5 7zM927 282h-208v49h208v-49zM104 -56q0 -10 7 -17t17 -7t17 7t7 17v291h-48v-291zM875 -56q0 -10 7.5 -17t17.5 -7t17 7t7 17v291h-49v-291zM309 379h-233q-10 0 -17 -7t-7 -17v-97q0 -9 7 -16t17 -7h233v-292q0 -9 7 -16t17 -7
t17 6t7 16v572l-48 -25v-110zM308 282h-208v49h208v-49zM244 509q-9 -4 -12 -13.5t1 -18.5q7 -13 22 -13q5 0 11 3l248 127l248 -127q5 -3 11 -3q14 0 21 13q5 9 2 18.5t-12 13.5l-246 130v41l137 56q5 2 9 5l-4 -3q5 3 7 8l-2 -3v0q4 5 5 11l-1 -5v0.5v0.5l0.5 1.5t0.5 2v1
v0.5v3v2v1v1q0 1 -1 3v2h-1q0 2 -1 3l-1 1q-2 3 -5 6l-2 2h-3q-4 4 -13 5l12 -4l-151 61q-15 6 -27 -6q-8 -7 -8 -17v-179zM538 784l64 -26l-64 -26v52zM900 -81h-771q-6 0 -10.5 4.5t-4.5 11.5v1q0 7 4.5 11.5t10.5 4.5h771q6 0 10.5 -4.5t4.5 -11.5v-1q0 -7 -4.5 -11.5
t-10.5 -4.5z" />
    <glyph glyph-name="xiaoyuandongtai" unicode="&#xe707;" 
d="M510 -97q-98 0 -188 38q-87 36 -154 103t-103 154q-38 90 -38 188t38 188q36 87 103 154t154 103q90 38 188 38t188 -38q87 -36 154 -103t103 -154q38 -90 38 -188t-38 -188q-36 -87 -103 -154t-154 -103q-90 -38 -188 -38zM510 803q-84 0 -160 -31.5t-135 -90.5
t-90.5 -135t-31.5 -159.5t31.5 -160t90.5 -135.5t135 -90.5t160 -31.5t160 31.5t135 90.5t90.5 135t31.5 160t-31.5 160t-90.5 135t-135 90.5t-160 31.5zM510 803zM748 334h-272v352h63v-290h209v-62v0zM748 334z" />
    <glyph glyph-name="Dditu" unicode="&#xe602;" 
d="M941 114v565l-19 11l-10 6l-377 188l-10 3l-6 -2l-445 -186l1 -20v-565l452 -225l9 -17l414 226zM903 115l-376 -205v543l-430 215l429 179l338 -169l-347 -209l10 -16l9 -16l367 220v-542v0z" />
    <glyph glyph-name="buzhouliebiao" unicode="&#xe604;" 
d="M132 62h64v63h-64v-63zM6 -1h126v63h-126v-63zM6 -128h126v63h-126v-63zM196 -65v64h-64v-64h64zM132 885h-63v-190h63v190zM967 50h-582v0q-21 0 -36 -15t-15 -36v0v-1v0q0 -21 15 -36t36 -15v0h582v0q21 0 36 15t15 36v0v1v0q0 21 -15 36t-36 15zM967 430h-582v0
q-21 0 -36 -15t-15 -36v0v-1v0q0 -21 15 -36t36 -15v0h582v0q21 0 36 15t15 36v0v1v0q0 21 -15 36t-36 15v0zM6 188v-63h126v63h-126zM967 810h-582v0q-21 0 -36 -15t-15 -36v0v-1v0q0 -21 15 -36t36 -15v0h582q21 0 36 15t15 36v0v1v0q0 21 -15 36t-36 15v0zM69 378h-63
v-63h190v63h-64v64h-63v-64zM6 505h126v-63h64v126h-190v-63z" />
    <glyph glyph-name="bianji" unicode="&#xe621;" 
d="M271 226q0 -1 -1 -3q-3 -7 -4 -15q-2 -27 18 -47q27 -28 62 -14q2 1 3 1l118 60l124 63q7 3 14 9q2 1 3 2l110 110l43 43l176 177q20 19 19 47.5t-21 49.5l-103 102v1q-20 20 -49 21q-12 0 -22 -3q-15 -5 -26 -16l-17 -18l-194 -193l-72 -72l-46 -47q-8 -7 -12 -16
l-13 -26l-37 -73l-45 -89zM729 746l32 32l5 5q7 8 18 7.5t19 -8.5l102 -103q8 -8 8.5 -18.5t-7.5 -18.5l-36 -36q-2 -2 -3 0l-106 106l-32 32q-1 1 0 2zM467 484l47 47l72 72l110 110q1 1 2 0l20 -19l43 -43l75 -76q2 -1 0 -3l-75 -75l-43 -44l-111 -110q-1 -1 -3 0l-26 26
l-72 73l-39 39q-2 2 0 3zM309 205v1l1 2l37 72l46 89l37 73l2 5q1 1 1 1.5v0.5q2 3 4 1l8 -8l72 -73l56 -56q2 -2 -1 -3v0q0 -1 -2 -1l-56 -29l-143 -72l-42 -22v0q-9 -3 -16 4t-4 15zM883 450h-39q-7 0 -11.5 -4.5t-4.5 -11t4.5 -11t11.5 -4.5h39q12 0 20 -6t8 -15v-411
q0 -8 -8 -14t-20 -6h-751q-12 0 -20 6t-8 14v411q0 9 8 15t20 6h168q7 0 11.5 4.5t4.5 11t-4.5 11t-11.5 4.5h-168q-30 0 -51 -15t-21 -37v-411q0 -21 21 -36.5t51 -15.5h751q30 0 51 15.5t21 36.5v411q0 22 -21 37t-51 15z" />
    <glyph glyph-name="dangqianweizhi" unicode="&#xe622;" 
d="M518 414q65 0 111.5 44t46.5 106.5t-46.5 107t-111.5 44.5t-111 -44.5t-46 -107t46 -106.5t111 -44zM518 678q50 0 85 -33t35 -80t-35 -80.5t-85 -33.5t-85 33.5t-35 80.5t35 80t85 33zM916 170q-35 27 -97 46q-51 17 -115 27q-18 3 -26 -13q-6 -11 0 -22t18 -13
q61 -10 111 -25q53 -17 81 -37t28 -35.5t-28 -35.5t-81 -37q-122 -39 -295 -39t-295 39q-53 17 -81 37t-28 35.5t28 35.5t81 37q52 16 119 26q12 2 18 13t0 22q-8 16 -25 13q-70 -10 -124 -28q-62 -19 -98 -46q-43 -32 -43 -72.5t43 -73.5q35 -26 98 -46q127 -41 306.5 -41
t307.5 41q62 20 97 46q43 33 43 73.5t-43 72.5zM367 249l23 -47l42 -84q11 -24 34.5 -38t51.5 -14t51.5 14t35.5 38l41 83l23 47l109 220q19 39 19 97q0 110 -81.5 188.5t-197 78.5t-197 -78.5t-81.5 -188.5q0 -58 19 -97zM518 794q100 0 171 -67t71 -162q0 -49 -16 -80
l-115 -233l-23 -47l-34 -71q-8 -14 -22.5 -22.5t-31.5 -8.5t-31.5 8.5t-21.5 22.5v0l-35 72l-24 47l-114 232q-15 31 -15 80q0 95 70.5 162t170.5 67zM319 143q23 7 50 13q8 1 11.5 8t-0.5 14q-5 11 -17 9q-28 -6 -52 -13q-41 -13 -64 -31q-28 -21 -28 -47.5t28 -47.5
q23 -17 64 -30q83 -26 200 -26t201 26q40 13 63 30q28 21 28 47.5t-28 47.5q-22 18 -63 31q-20 6 -43 11q-12 2 -17 -9q-4 -7 -0.5 -14t11.5 -8q22 -5 41 -11q34 -11 52.5 -24t18.5 -23t-18.5 -23.5t-52.5 -23.5q-80 -26 -193 -26t-192 26q-35 10 -53 23.5t-18 23.5t18 23
t53 24z" />
    <glyph glyph-name="dengji" unicode="&#xe623;" 
d="M223 368q4 11 19.5 19t29.5 11l14 4q-67 47 -133 125v-116q-45 -7 -89 -14q76 -83 159 -145v116zM871 407v116q-66 -78 -134 -126h4q6 -1 15.5 -3t27 -11t20.5 -20v-115q72 53 156 144q-38 7 -89 15zM303 390q-61 -4 -61 -18q0 -7 8.5 -11t28.5 -8zM727 389l23 -39
q22 2 30.5 6.5t6.5 12.5q-3 12 -60 20zM546 185l-39 -97l-34 98h1q-75 3 -136 14q-69 12 -101 30l-45 -68l226 23l87 -248l97 243l225 -35l-44 75q-80 -32 -237 -35zM348 213q-1 0 -2.5 0.5t-2.5 0.5q3 -1 5 -1zM294 348q14 -3 32 -6v0q1 -1 2 -1h1q13 -2 23 -4l42 64
l-85 143l146 -23l63 158l56 -161l147 16l-90 -139l36 -60q32 4 60 9l-30 51l138 213l-226 -23l-87 247l-97 -243l-225 35l130 -220zM791 348q-45 -18 -124 -27q-69 -9 -147 -9q-91 0 -167 12q-80 11 -115 30l-1 -107q33 -21 111 -33.5t172 -12.5q167 0 256 32
q-89 -33 -257 -33q-93 0 -171 13q57 -9 126 -12h10h1q7 0 11 -1h1h5.5h5.5h1h5.5h5.5h13v0h13q157 3 236 35v1l10 4zM777 234v0v0z" />
    <glyph glyph-name="dianping" unicode="&#xe625;" 
d="M918.5 512q-9.5 0 -16 -7t-6.5 -16v-332q0 -28 -13 -45q-8 -12 -16 -12h-410q-12 0 -23 -6l-150 -88q-4 -3 -9 -1t-6 7l-15 48q-5 18 -20 29t-33 11h-62q-9 0 -17 12q-13 17 -13 45v446q0 27 13 45q8 11 17 11h361q10 0 16.5 7t6.5 16v1q0 9 -6.5 16t-16.5 7h-361
q-31 0 -53 -30.5t-22 -72.5v-447q0 -42 22 -72.5t53 -30.5h62q8 0 10 -7l31 -103q2 -5 7 -7t9 1l191 112q8 4 17 4h401q31 0 52.5 30.5t21.5 72.5v333q0 9 -6.5 16t-16 7zM939 707l-101 103v0q-20 21 -48 22q-11 0 -22 -4q-14 -4 -25 -15l-17 -18l-189 -194l-71 -73l-46 -46
q-6 -8 -11 -17l-13 -26l-36 -73l-44 -90l-27 -54q-1 -2 -1 -3q-3 -7 -4 -15q-3 -27 17 -48q27 -27 61 -14q2 1 3 2l115 60l122 63q7 3 14 9l2 2l108 111l42 43l173 177q19 20 18.5 48.5t-20.5 49.5zM584 306v0q-1 0 -2 -1l-56 -29l-139 -72l-41 -22h-1q-8 -3 -15 4t-4 15v1
l2 2l36 72l44 90l36 73l3 5l0.5 1l0.5 1q1 3 3 1l8 -8l71 -73l55 -56q2 -2 -1 -4zM842 570l-74 -76l-42 -43l-108 -111q-1 -1 -3 0l-25 26l-71 73l-39 39q-1 2 0 3l46 48l71 72l107 110q2 2 3 0l19 -19l42 -43l74 -76q2 -2 0 -3zM911 640l-36 -36q-1 -2 -3 0l-104 106
l-31 32q-1 1 0 3l31 32l5 5q8 7 18 7q11 -1 19 -8l100 -104q7 -7 7.5 -18t-6.5 -19z" />
    <glyph glyph-name="denglu" unicode="&#xe62d;" 
d="M514.5 2q-75.5 0 -144.5 29q-66 28 -117.5 79t-79.5 118q-29 69 -29 144t29 144q28 66 79.5 117.5t117.5 79.5q69 29 144.5 29t144.5 -29q66 -28 117.5 -79.5t79.5 -117.5q29 -69 29 -144t-29 -144q-28 -67 -79.5 -118t-117.5 -79q-69 -29 -144.5 -29zM514.5 698
q-88.5 0 -163.5 -43.5t-119 -119t-44 -164t44 -163.5t119 -118.5t163.5 -43.5t163.5 43.5t119 118.5t44 163.5t-44 164t-119 119t-163.5 43.5zM512 -65q-91 0 -174 35q-80 34 -142 96t-96 143q-36 83 -36 174t36 175q34 80 95.5 142t142.5 96q84 35 174 35q92 0 175 -35
q80 -34 142 -96t96 -143q35 -83 35 -174t-35 -174q-34 -81 -96 -143t-142 -96q-84 -35 -175 -35zM512.5 787q-109.5 0 -202.5 -54t-147.5 -147t-54.5 -202.5t54.5 -203t147.5 -147.5t202.5 -54t202.5 54t147 147.5t54 203t-54 202.5t-147 147t-202.5 54zM260 466v9q0 3 3 3
h85q3 0 3 -3v-12q0 -1 -1 -2q-30 -51 -93 -87q-3 -1 -4 2q-3 5 -7 10q-1 3 2 5q19 10 33 20q3 2 0 5q-11 11 -25 24q-2 2 0 5l7 6q2 3 4 0q15 -13 27 -25q3 -2 5 0q15 14 27 32q1 1 0 2.5t-3 1.5h-61q-3 0 -2 4zM253 288h66q2 0 2.5 2.5t-0.5 3.5q-5 4 -16 15q-3 2 0 4l6 7
q2 2 5 0q11 -10 23 -20q3 -3 0 -5l-1 -1q-1 -1 -0.5 -3t3.5 -2h39q2 0 3 2t-1 3q-2 2 0 5q12 11 22 21q2 3 5 1l9 -8q2 -2 0 -4q-7 -7 -16 -15q-1 -1 -0.5 -3t3.5 -2h67q3 0 3 -4v-9q0 -3 -3 -3h-219q-4 0 -4 3v9q0 4 4 3zM288 386h146q3 0 3 -3v-64q0 -4 -3 -4h-11
q-3 0 -3 4v2q0 3 -4 3h-110q-3 0 -3 -3v-2q0 -4 -4 -4h-11q-3 0 -3 4v64q0 3 3 3zM416 371h-110q-3 0 -3 -3v-26q0 -3 3 -3h110q4 0 4 3v26q0 3 -4 3zM325 422h71q4 0 4 -3v-9q0 -3 -4 -3h-71q-4 0 -4 3v9q0 3 4 3zM381 487q4 -11 9 -20q1 -3 4 -1q23 12 39 23q3 2 5 -1
l7 -9q2 -3 -1 -5q-17 -10 -41 -22q-3 -2 -1 -5q5 -7 10 -12q2 -2 4 -1q22 12 40 25q3 1 4 -1l8 -10q2 -2 -1 -4q-16 -10 -36 -21q-1 -1 -1 -2.5t1 -2.5q19 -14 43 -19q5 -1 2 -5q-6 -8 -9 -13q-1 -2 -3 -1q-70 25 -100 101q-1 3 2 4l10 4q4 1 5 -2zM556 307q42 13 92 31
q3 1 4 -3l2 -11q0 -2 -2 -3q-43 -15 -89 -32q-3 -1 -4 2l-5 11q-1 4 2 5zM753 375l9 -11q2 -2 -1 -4q-17 -11 -41 -26q-2 -1 -2 -3t2 -3q24 -17 59 -26q4 -1 1 -5q-5 -8 -8 -13q-2 -2 -4 -1q-55 17 -84 56q-1 2 -3.5 1t-2.5 -3v-40q0 -28 -28 -28q-15 0 -30 1q-3 0 -3 2
t-1 6.5t-1 6.5q-1 2 0.5 3t2.5 1q14 -1 26 -2q16 0 16 15v80q0 3 -3 3h-97q-4 0 -4 3v9q0 3 4 3h165q3 0 3 3v19q0 3 -3 3h-136q-4 0 -4 3v8q0 4 4 4h136q3 0 3 3v18q0 3 -3 3h-141q-3 0 -3 3v9q0 3 3 3h158q4 0 4 -3v-73q0 -3 3 -3h29q3 0 3 -3v-9q0 -3 -3 -3h-97
q-3 0 -3 -3v-2v-1q9 -20 23 -34q1 -2 4 -1q24 16 43 31q3 2 5 0zM588 377q20 -12 39 -26q3 -2 1 -4l-7 -10q-2 -3 -5 -1q-18 14 -38 27q-3 2 -1 5l6 8q2 2 5 1z" />
    <glyph glyph-name="danmu" unicode="&#xe62e;" 
d="M924 558q-35 81 -97 143t-142 96q-83 35 -175 35q-90 0 -174 -35q-80 -34 -142.5 -96t-95.5 -143q-36 -83 -36 -174t36 -175q34 -80 96 -142t142 -96q83 -35 174 -35t175 35q80 34 142.5 96t96.5 142q35 84 35 175t-35 174zM443 -15q-117 19 -214.5 116.5t-116.5 214.5
q-17 101 15 195t97 159t159.5 97t194.5 16q117 -19 214.5 -116.5t116.5 -214.5q17 -101 -15 -195.5t-97 -159t-159 -96.5t-195 -16zM424 550q4 -8 10 -16q3 -2 6 -2h112q2 0 4 1q4 2 6 5q10 8 12 17q1 1 1 2v87q0 1 -1 2q0 4 -1 6q-8 18 -30 21h-2h-91h-2t-3 -0.5t-3 -0.5
l-1 -1q-17 -7 -20 -25v-2v-83v-2q2 -5 3 -9zM441 627q0 2 1 4l1 1v1q6 8 17 12h2h70q2 0 4 -1l10 -5q4 -2 4 -7v-67q0 -5 -4 -7l-10 -5q-2 -1 -4 -1h-69h-3q-4 2 -7 4q-9 6 -12 15v2v54zM384 321q-5 10 -14 18q-2 2 -5 2h-69q-1 0 -2 1q-5 2 -8 4q-8 5 -11 15v2v99v2
q2 6 4 8q6 8 15 11h2h47h2q16 4 22 8q10 7 13 20v1v131v4q-4 8 -7 12v0v1q-12 13 -29 13h-82q-3 0 -6 -2q-1 -1 -1 -2q-4 -5 -4 -10t5 -8q3 -2 5 -2h80q3 0 5 -1l6 -5q4 -2 4 -6v-116q0 -5 -5 -8l-9 -5q-2 -1 -4 -1h-58h-2q-8 -3 -12 -5q-12 -9 -15 -26v-2v-124v-2
q2 -7 4 -11q5 -10 13 -18q3 -2 6 -2h68q2 0 4 -1q8 -5 11 -13q4 -8 4 -19q0 -8 -2 -17q-3 -22 -3 -26v-1q-5 -57 -7 -67q-8 -35 -28 -61q-2 -2 -3 -2q-4 -2 -8 -2q-9 0 -21 7q-26 16 -31 16q-10 0 -17 -11q-3 -5 1 -10q10 -11 26 -19q19 -9 38 -9q20 0 33.5 10t16.5 30v1
q9 30 14 51q13 58 18 114v20v2q-2 7 -4 11zM619 547q5 -9 14 -14q2 -1 4 -1h113q3 0 5 1q4 3 6 5q9 9 12 21v2v79q0 1 -1 3q-3 8 -6 12q-11 15 -30 15h-84q-17 0 -27 -8.5t-10 -24.5v-79q0 -2 1 -3q1 -4 3 -8zM635 627q0 2 1 4l1 1q0 1 1 1q5 8 16 12h3h78q2 0 3 -1l10 -5
q5 -2 5 -7v-67q0 -5 -5 -7l-10 -5q-1 -1 -3 -1h-78h-3q-4 2 -7 4q-8 6 -11 15q-1 1 -1 2v54zM787 199q-2 1 -3 1h-165q-8 0 -8 8v44q0 8 8 8h109h1q10 2 16 4q15 5 23 19q1 2 1 4v181q0 3 -3 5l-11 12q-2 2 -6 2h-301q-3 0 -6 -2l-11 -12q-2 -2 -2 -5v-189q0 -3 1.5 -5
t2.5 -3q12 -11 24 -11h121q9 0 9 -8v-44q0 -9 -9 -9h-164h-3l-1 -0.5l-1 -0.5q-1 0 -2 -1q-3 -3 -3 -7q0 -3 2 -7t7 -4h166q8 0 8 -8v-98q0 -4 4 -6v-1q5 -2 9 -2q6 0 10 8q1 2 1 4v95q0 8 8 8h174l2 1v8q0 8 -8 11zM611 459q0 8 8 8h104q1 0 3 -1l13 -5q5 -2 5 -8v-59
q0 -8 -8 -8h-117q-8 0 -8 8v65zM611 357q0 9 8 9h117q9 0 9 -9v-59q0 -5 -5 -7l-10 -5q-1 -1 -4 -1h-107q-8 0 -8 8v64zM587 293q0 -8 -9 -8h-112h-2t-7 1q-4 1 -7 5q-1 1 -1 4v63q0 8 8 8h121q9 0 9 -8v-65v0zM587 394q0 -8 -9 -8h-121q-8 0 -8 8v60q0 5 4 7l10 5q2 1 4 1
h111q9 0 9 -8v-65z" />
    <glyph glyph-name="fanhuidingbu" unicode="&#xe630;" 
d="M951 342l-389 446h366q9 0 15.5 6.5t6.5 15.5t-6.5 15.5t-15.5 6.5h-830q-9 0 -15.5 -6.5t-6.5 -15.5t6.5 -15.5t15.5 -6.5h364l-388 -446q-7 -7 -6 -16t8 -15.5t16 -5.5t15 8l383 437v-792q0 -9 6.5 -15.5t15.5 -6.5t15.5 6.5t6.5 15.5v793l383 -438q6 -7 15.5 -8
t16.5 5.5t7.5 15.5t-5.5 16z" />
    <glyph glyph-name="fenxiang1" unicode="&#xe631;" 
d="M814 223q-49 -1 -86.5 -31t-49.5 -75l-330 220l-4 2q6 20 7 42q0 24 -7 47q2 1 3 2l331 221q13 -47 52.5 -77t89.5 -29q57 1 98 42t42 98q2 62 -41.5 105.5t-104.5 41.5q-56 -1 -96.5 -40t-44.5 -94q-5 -1 -9 -3l-340 -228q-20 29 -52 45t-68 15q-57 -1 -98 -42t-42 -98
q-2 -61 41.5 -104.5t104.5 -42.5q72 2 114 60l340 -227q4 -2 9 -3q4 -57 46.5 -96t100.5 -38q57 1 98 42t42 98q2 62 -41.5 105t-104.5 42zM821 788q39 -2 66.5 -29t28.5 -66q3 -44 -28.5 -75t-75.5 -29q-38 2 -65.5 29t-29.5 66q-2 44 29 75t75 29zM203 284
q-39 2 -66.5 29.5t-28.5 65.5q-3 44 28.5 75t75.5 29q38 -1 65.5 -28.5t29.5 -66.5q2 -44 -29 -75t-75 -29zM812 -20q-38 2 -65.5 29t-29.5 66q-2 44 29 75t75 29q39 -2 66.5 -29t28.5 -66q2 -44 -29 -75t-75 -29z" />
    <glyph glyph-name="fanhui1" unicode="&#xe632;" 
d="M937 517q-20 42 -58 73q-78 65 -187 65h-255h-5v124q0 30 -25 45q-24 16 -49 0l-253 -157q-25 -15 -25 -46t25 -46l253 -157q12 -7 25 -7q10 0 20 4q29 14 29 50v143q3 -1 5 -1h255q94 0 160 -55q63 -53 63 -126v-260q0 -73 -63 -126q-66 -55 -160 -55h-606
q-9 0 -15.5 -7.5t-6.5 -17t6.5 -17t15.5 -7.5h606q109 0 187 66q38 31 58 72q22 44 22 92v260q0 48 -22 91zM387 464q0 -3 -2 -4q-2 -2 -5 0l-253 157q-2 1 -2 4t2 5l253 157q3 1 5 0q2 -2 2 -5v-314v0z" />
    <glyph glyph-name="gerenxinxi" unicode="&#xe633;" 
d="M720 343q-48 31 -100 49q33 17 59 43q68 68 68 164.5t-68.5 164.5t-164.5 68t-164.5 -68t-68.5 -164.5t68 -164.5q24 -24 53 -40q-32 -8 -63 -22q-80 -36 -142 -101.5t-96 -150.5q-31 -77 -35 -160q-1 -10 5.5 -17t16.5 -7v0q8 0 14.5 6.5t6.5 15.5q6 111 61 204t146 147
t197 54h1v2q3 0 5 1v-1q96 -8 177 -62q8 -5 16.5 -3t13.5 9q5 9 3 18.5t-9 14.5zM325 599.5q0 78.5 55.5 134t133.5 55.5t133.5 -55.5t55.5 -134t-55.5 -134t-133.5 -55.5t-133.5 55.5t-55.5 134zM941 201h-199q-8 0 -13.5 5.5t-5.5 13t5.5 13t13.5 5.5h199q8 0 13.5 -5.5
t5.5 -13t-5.5 -13t-13.5 -5.5zM941 -63h-199q-8 0 -13.5 5.5t-5.5 13t5.5 13t13.5 5.5h199q8 0 13.5 -5.5t5.5 -13t-5.5 -13t-13.5 -5.5zM941 25h-199q-8 0 -13.5 5.5t-5.5 13t5.5 13t13.5 5.5h199q8 0 13.5 -5.5t5.5 -13t-5.5 -13t-13.5 -5.5zM941 113h-199q-8 0 -13.5 5.5
t-5.5 13t5.5 13t13.5 5.5h199q8 0 13.5 -5.5t5.5 -13t-5.5 -13t-13.5 -5.5z" />
    <glyph glyph-name="guanzhu" unicode="&#xe637;" 
d="M924 558q-34 81 -96 143t-142 96q-83 35 -174 35t-174 -35q-81 -34 -143 -96t-96 -143q-35 -83 -35 -174t35 -175q34 -80 96 -142t143 -96q83 -35 174 -35t174 35q80 34 142 96t96 142q35 84 35 175t-35 174zM511.5 -20q-109.5 0 -202.5 54t-147 147t-54 202.5t54 203
t147 147.5t202.5 54t202.5 -54t147 -147.5t54 -203t-54 -202.5t-147 -147t-202.5 -54zM651 646q-76 0 -130 -53q-10 -11 -20 0q-54 53 -130 53t-130 -54t-54 -130q0 -25 7 -47.5t21.5 -43t24 -32t26.5 -28.5l236 -235q10 -10 20 0l238 238q34 32 51 61q24 41 24 87
q0 76 -54 130t-130 54zM734 341h-1l-211 -211q-10 -11 -20 0l-209 208q-21 22 -32.5 35t-23.5 38.5t-12 50.5q0 60 42.5 103t103.5 43q60 0 103 -42q12 -13 21 -27l4 -6q4 -7 12 -7t12 7l4 6q9 14 21 27q43 42 103.5 42t103 -43t42.5 -103t-63 -121z" />
    <glyph glyph-name="faxian" unicode="&#xe638;" 
d="M938 397q-12 6 -34 11q-32 7 -82 12q-9 80 -58 145q35 42 52 70q9 16 13 28q7 21 -6 33q-13 13 -37 5q-13 -4 -32 -16q-27 -16 -67 -47q-79 52 -175 52q-100 0 -181 -57q-43 33 -71 50q-18 10 -29 13q-22 7 -35 -5t-6 -34q3 -11 13 -27q17 -28 52 -72q-44 -62 -53 -138
q-55 -6 -87 -14q-19 -4 -30 -10q-21 -11 -21 -28t20 -28q11 -6 30 -10q35 -9 94 -15h1q14 -54 46 -100q-2 0 -3 -1q-36 -45 -53 -73q-10 -17 -14 -28q-6 -22 6.5 -34t34.5 -6q12 4 28 13q30 18 77 54q81 -56 181 -56q95 0 173 50v0q48 -37 78 -54q16 -10 28 -14q22 -6 35 6
q13 13 5 36q-4 12 -16 31q-18 28 -51 69q37 48 51 107h1q60 6 94 15q19 4 30 10q20 11 20 28q1 18 -22 29zM778 354q-97 -8 -219 -10q102 100 177 187q44 -65 44 -144q1 -16 -2 -33zM744 627q4 3 7.5 -0.5t0.5 -7.5q-9 -12 -16 -21q-1 0 -1 1q-2 1 -2 2q-6 6 -11 10z
M708 565q-75 -88 -183 -194q-13 -12 -19 -18l-13 12q-107 105 -182 194q38 41 90 64.5t111 23.5q116 0 196 -82zM267 614q-3 4 0.5 7t7.5 1q9 -7 21 -17l-4 -4l-9 -9q-9 12 -16 22zM284 524q70 -82 168 -180q-114 2 -206 10q-2 16 -2 33q0 74 40 137zM171 362q-5 1 -5 6t5 6
q13 2 30 4q0 -10 1 -20q-14 2 -31 4zM452 302q-66 -62 -121 -107q-54 48 -75 116q87 -7 196 -9zM271 149q-4 -3 -7.5 0.5t-0.5 6.5q10 14 20 26l9 -9l2.5 -2.5l2.5 -2.5q-13 -10 -26 -19zM512 126q-79 0 -146 43q65 53 140 124q78 -75 144 -130q-64 -37 -138 -37zM755 149
q3 -4 -0.5 -7t-7.5 0q-12 8 -26 20q7 6 12 11l2 2q11 -13 20 -26zM686 189q-58 48 -127 113q117 1 210 9q-23 -73 -83 -122zM854 362q-17 -2 -31 -4q1 10 1 20q16 -2 30 -4q5 -1 5 -6t-5 -6z" />
    <glyph glyph-name="haoyou" unicode="&#xe639;" 
d="M609 211q-21 51 -60 90q-40 39 -91 61q-12 5 -26 10q30 20 48 52t19 69q1 64 -44.5 109.5t-109.5 43.5q-60 -1 -102.5 -44t-44.5 -103q-1 -39 17 -72.5t49 -54.5l-26 -10q-51 -22 -90.5 -61t-60.5 -90q-19 -44 -22 -90q-1 -8 5 -14.5t14 -6.5t13.5 5.5t5.5 12.5
q7 96 77.5 162t167.5 66t167.5 -66t77.5 -162q0 -7 5.5 -12.5t13.5 -5.5t14 6.5t5 14.5q-3 47 -22 90zM236 492q-1 49 33.5 83t82.5 33q44 -2 75.5 -33t32.5 -75q2 -49 -32.5 -83t-82.5 -33q-44 2 -75.5 33t-33.5 75zM958 125q-4 49 -23 95q-23 55 -65 97q-30 29 -65 50
q-9 5 -11.5 14.5t3.5 18.5q29 43 29 96q0 64 -42 112.5t-104 58.5q-11 2 -19 -5t-8 -18q0 -8 5.5 -14.5t14.5 -7.5q46 -7 76.5 -43t30.5 -83q0 -54 -38 -91q-16 -15 -12 -35.5t24 -28.5v-1q47 -19 83 -55t56 -83q16 -39 19 -81q1 -9 7.5 -15t15.5 -6q10 0 17 7.5t6 17.5z
M761 219q-24 55 -66 98q-29 29 -65 49q-9 5 -11 15t3 18q30 43 30 96q0 65 -42 113.5t-105 57.5q-10 2 -18.5 -5t-8.5 -17q0 -9 6 -15.5t14 -7.5q46 -7 77 -42.5t31 -83.5q0 -53 -39 -91q-15 -14 -11 -35t23 -29h1q46 -20 82 -56t56 -83q17 -39 20 -80q1 -9 7.5 -15t15.5 -6
q10 0 17 7t6 17q-4 50 -23 95z" />
    <glyph glyph-name="haoyouliebiao" unicode="&#xe63a;" 
d="M583 88q-9 118 -95 203q-61 59 -142 83q36 24 57 61t21 81q0 70 -52 120t-126 50t-126 -50t-52 -120.5t52 -121t126 -50.5q10 0 20 2q4 -2 8 -3q106 -9 181 -83t83 -176q0 -8 6.5 -14t15.5 -6q10 0 17 7t6 17zM113 515.5q0 52.5 39 90t94 37.5t94 -37.5t39 -90t-39 -90
t-94 -37.5t-94 37.5t-39 90zM270 249h-179q-10 0 -16.5 6.5t-6.5 15.5t6.5 15.5t16.5 6.5h179q10 0 16.5 -6.5t6.5 -15.5t-6.5 -15.5t-16.5 -6.5zM270 159h-179q-10 0 -16.5 6t-6.5 15t6.5 15.5t16.5 6.5h179q10 0 16.5 -6.5t6.5 -15.5t-6.5 -15t-16.5 -6zM270 70h-179
q-10 0 -16.5 6.5t-6.5 15.5t6.5 15.5t16.5 6.5h179q10 0 16.5 -6.5t6.5 -15.5t-6.5 -15.5t-16.5 -6.5zM939 68q-9 0 -15.5 6t-7.5 15q-3 49 -23 95q-24 53 -67 94.5t-98 63.5h-1q-20 9 -24.5 30t11.5 36q47 44 47 106q0 55 -38.5 96.5t-95.5 49.5q-8 1 -14 7t-6 15t8 16
t18 5q74 -9 124 -63t50 -126q0 -63 -38 -113q-7 -8 -4.5 -17.5t11.5 -14.5q46 -24 83 -59q49 -47 76 -108q23 -53 27 -110q1 -10 -6 -17t-17 -7zM756 64q-9 0 -15.5 6t-7.5 15q-3 49 -23 95q-24 53 -67 94.5t-99 63.5v1q-21 8 -25 29t12 36q47 44 47 106q0 55 -38.5 97
t-95.5 49q-8 1 -14 7t-6 15q0 10 8 16.5t18 5.5q74 -10 124 -64t50 -126q0 -63 -39 -113q-6 -8 -3.5 -17.5t11.5 -14.5q46 -24 82 -59q50 -47 77 -108q23 -53 27 -110q1 -10 -6 -17t-17 -7z" />
    <glyph glyph-name="guanli" unicode="&#xe63b;" 
d="M496 123q-99 6 -169 76t-76 169q-8 113 70 196t191 83q109 0 185.5 -77t76.5 -185q0 -113 -82.5 -191t-195.5 -71zM512 603q-91 0 -155.5 -65.5t-62.5 -157.5q2 -87 64.5 -149.5t149.5 -63.5q92 -2 157.5 62t65.5 156q0 90 -64 154t-155 64zM865 518h-10q-6 0 -8 5.5
t2 9.5l13 13q25 25 25 61t-25 62l-66 65q-25 26 -61 26t-61 -26l-13 -13q-5 -4 -10 -1.5t-5 8.5v9q0 40 -28 68t-68 28h-75q-40 0 -68 -28t-28 -68v-9q0 -6 -5 -8v0q-5 -3 -10 1l-12 13q-26 26 -62 26t-61 -26l-66 -65q-25 -26 -25 -62t25 -61l13 -13q4 -4 2 -9.5t-8 -5.5
h-10q-40 0 -68 -28t-28 -68v-75q0 -40 28 -68t68 -28h9q6 0 8.5 -5t-1.5 -10l-13 -12q-26 -26 -26 -62t26 -61l65 -66q26 -25 62 -25t61 25l13 13q4 4 9 2h1q5 -2 5 -8v-10q0 -39 28 -67t67 -28h76q39 0 67 28t28 67v10q0 6 5.5 8t9.5 -2l13 -13q26 -25 62 -25t61 25l66 66
q25 25 25 61t-25 62l-13 12q-4 5 -2 10t8 5h10q39 0 67 28t28 68v75q0 40 -28 68t-67 28zM916 347q0 -21 -15 -36.5t-36 -15.5h-40q-7 0 -9 -6l-3 -9q-6 -18 -14 -35l-4 -8q-3 -6 1 -10l35 -34q12 -13 12 -31t-12 -30l-66 -66q-12 -12 -30 -12t-31 12l-34 34q-4 5 -10 2
l-8 -4q-17 -8 -35 -14l-9 -3q-6 -2 -6 -9v-48q0 -18 -13 -31t-30 -13h-84q-22 0 -37 15.5t-15 36.5v40q0 7 -6 9l-9 3q-17 6 -35 14l-8 4q-6 3 -10 -1l-35 -35q-12 -12 -30 -12t-31 12l-65 66q-13 12 -13 30t13 31l34 34q5 5 2 10l-4 9q-8 16 -15 34l-3 9q-2 6 -8 6h-40
q-22 0 -37 15.5t-15 36.5v75q0 22 15 37t37 15h40q6 0 8 6l3 9q7 19 15 35l4 8q3 6 -2 10l-34 35q-13 12 -13 30t13 31l65 66q13 12 31 12t30 -12l35 -35q4 -4 10 -2l8 4q17 9 35 15l9 3q6 2 6 8v40q0 22 15 37t37 15h75q21 0 36.5 -15t15.5 -37v-40q0 -6 6 -8l9 -3
q16 -6 35 -14l8 -5q6 -2 10 2l35 35q12 12 30 12t31 -12l65 -66q13 -12 13 -30t-13 -31l-34 -34q-5 -5 -2 -10l4 -9q8 -16 14 -35l4 -9q2 -6 8 -6h40q21 0 36.5 -15t15.5 -36v-76h-1z" />
    <glyph glyph-name="jifen" unicode="&#xe63e;" 
d="M366 726h-111q-8 0 -13 -5t-5 -13v-70q0 -7 5 -12.5t13 -5.5h300q8 0 13 5.5t5 12.5v70q0 8 -5 13t-13 5h-111v0q2 7 2 13q0 17 -12 29.5t-29 12.5t-29.5 -12.5t-12.5 -29.5q0 -6 3 -13v0zM368 707q8 0 13 5q7 9 3 19q-2 4 -2 8q0 10 7 16.5t16 6.5t15.5 -6.5t6.5 -16.5
q0 -4 -1 -8q-4 -11 3 -19q6 -5 13 -5h112v0v-67v0h-298v0v67v0h112zM949 232q11 14 11 30q0 40 -68 62q-57 18 -136 18q-81 0 -138 -19q-67 -22 -67 -61q0 -16 12 -30q-12 -13 -12 -29q0 -17 13 -31q-13 -14 -13 -31t14 -32q-14 -14 -14 -31t13 -32q-13 -14 -13 -31
q0 -40 69 -62q57 -18 136 -18t136 18q68 22 68 62q0 17 -13 31q13 15 13 32t-13 31q13 15 13 32t-13 31q13 14 13 31q0 16 -11 29zM915 14q-10 -12 -43 -21q-49 -14 -116 -14t-116 14q-33 9 -44 21q-1 1 0 3q3 2 6 5q18 -8 41 -13q51 -12 113 -12q79 0 136 18q10 4 17 7
q4 -3 6 -5q1 -2 0 -3zM915 76q-10 -11 -43 -21q-49 -14 -116 -14q-56 0 -98.5 9.5t-58.5 22.5q-1 2 -3 0l-8 -9l8 9q2 2 0 3q-1 1 0 3q3 2 8 6q5 -3 16 -6q57 -19 136 -19t136 19q8 2 16 6q5 -3 7 -6q2 -1 0 -3zM596 142q3 3 6 5l18 -6q57 -18 136 -18t136 18q10 3 17 6
q4 -2 6 -5q1 -1 0 -2q-10 -12 -43 -21q-49 -15 -116 -15t-116 15q-33 9 -44 21q-1 1 0 2zM915 202q-10 -12 -43 -21q-49 -14 -116 -14t-116 14q-33 9 -44 21q-1 1 0 2.5t3 2.5q10 -4 21 -8q57 -18 136 -18t136 18q11 4 20 8q2 -1 3 -2.5t0 -2.5zM915 260q-10 -11 -43 -21
q-49 -14 -116 -14t-116 14q-34 10 -44 21q-1 2 0 3q9 10 36 19q50 16 124 16q67 0 116 -14q33 -10 43 -21q1 -1 0 -3zM539 -19h-380q-21 0 -36.5 15t-15.5 37v630q0 17 12 29t29 12h70q10 0 10 11q1 8 7 13.5t14 5.5h95q9 0 11 9l2 8q4 17 17.5 27.5t30.5 10.5t30.5 -10.5
t17.5 -27.5l2 -8q2 -9 11 -9h95q8 0 14 -5.5t6 -13.5q1 -11 11 -11h69q17 0 29.5 -12t12.5 -29v-278q0 -9 6 -15.5t15.5 -6.5t15.5 6.5t6 15.5v278q0 35 -24.5 60t-60.5 25h-35q-7 0 -10 5q-15 25 -45 25h-74q-7 0 -10 6q-9 16 -24 28q-25 21 -58 21t-58 -21
q-16 -12 -24 -28q-4 -6 -10 -6h-74q-30 0 -46 -25q-3 -5 -9 -5h-36q-35 0 -60 -25t-25 -60v-630q0 -40 28 -68t68 -28h379q10 0 16 6.5t6 15.5t-6 15.5t-15 6.5zM626 361v-4q0 -9 10 -9t10 9v255q0 14 -10 24t-25 10h-8q-9 0 -16 -6t-9 -14q-2 -12 -14 -12h-321
q-12 0 -15 12q-2 8 -9 14t-16 6h-8q-14 0 -24 -10t-10 -24v-570q0 -14 10 -24t24 -10h335q9 0 9 9.5t-9 9.5h-335q-6 0 -10.5 4t-4.5 11v570q0 6 4.5 10t10.5 4h1q12 0 14 -12q2 -8 9 -13.5t16 -5.5h337q9 0 15.5 5.5t8.5 13.5q3 12 15 12h1q6 0 10.5 -4t4.5 -10v-251h-1z
" />
    <glyph glyph-name="jiaguanzhu" unicode="&#xe63f;" 
d="M809 440q0 9 -6.5 15.5t-15.5 6.5t-15.5 -6.5t-6.5 -15.5v-34h-35q-9 0 -15.5 -6.5t-6.5 -15.5t6.5 -15.5t15.5 -6.5h35v-34q0 -9 6.5 -15.5t15.5 -6.5t15.5 6.5t6.5 15.5v34h35q9 0 15 6.5t6 15.5t-6 15.5t-15 6.5h-35v34zM761 600q-48 41 -112 41q-73 0 -124 -51
q-6 -7 -13 -14l-12 14q-52 51 -124.5 51t-124.5 -52t-52 -124q0 -31 14.5 -61.5t27.5 -45.5t35 -38l237 -237l156 157l5 4q6 6 6 14.5t-6 14.5q-6 5 -14 5t-13 -6l-6 -5l-128 -128l-209 209q-20 21 -31 33.5t-22.5 36t-11.5 47.5q0 55 38.5 94.5t93.5 41.5q59 2 102 -40
q13 -14 22 -30l17 -31l17 31q10 17 24 31q39 40 96 40q49 0 87 -32q22 -18 34 -42q1 -1 1.5 -2t0.5 -2q5 -8 13.5 -9.5t15.5 3.5q14 10 5 26l-0.5 1t-0.5 2q-16 31 -44 53zM925 559q-34 80 -96 142.5t-143 96.5q-83 35 -174.5 35t-174.5 -35q-81 -34 -143 -97
q-62 -62 -96 -142q-35 -84 -35 -175t35 -175q34 -80 96 -142.5t143 -96.5q83 -35 174.5 -35t174.5 35q81 34 143 96.5t96 142.5q35 84 35 175t-35 175zM511.5 -21q-109.5 0 -203 54.5t-147.5 147.5t-54 203t54 203t147.5 147.5t203 54.5t203 -54.5t147.5 -147.5t54 -203
t-54 -203t-147.5 -147.5t-203 -54.5z" />
    <glyph glyph-name="jinggao" unicode="&#xe640;" 
d="M924 584q-34 80 -95.5 142t-142.5 96q-83 35 -174.5 35t-174.5 -35q-80 -34 -142 -96t-96 -142q-35 -83 -35 -174.5t35 -174.5q34 -81 96 -143t142 -96q83 -35 174.5 -35t174.5 35q81 35 142.5 96.5t95.5 142.5q36 83 36 174t-36 175zM511.5 5q-109.5 0 -202.5 54
t-147 147.5t-54 203t54 202.5t147 147.5t202.5 54.5t203 -54.5t147.5 -147.5t54 -202.5t-54 -203t-147.5 -147.5t-203 -54zM628 741q-9 12 -24 13h-1.5h-0.5h-180h-2q-15 -1 -24.5 -13t-7.5 -27l66 -435v-1q1 -13 11 -21.5t23 -8.5h48q14 0 24 8.5t11 21.5v0.5v0.5l64 435
q3 15 -7 27zM523 211h-23q-25 0 -43.5 -18t-18.5 -44v-22q0 -26 18.5 -44t43.5 -18h23q26 0 44 18t18 44v22q0 26 -18 44t-44 18z" />
    <glyph glyph-name="jiesuo" unicode="&#xe641;" 
d="M841 525h-123v184q0 51 -38 87t-91 36h-153q-53 0 -91 -36t-38 -87v-59q0 -9 6.5 -15.5t15.5 -6.5t15.5 6.5t6.5 15.5v59q0 33 25 56t60 23h153q35 0 60 -23t25 -56v-184h-493q-48 0 -83 -34.5t-35 -82.5v-353q0 -49 35 -83t83 -34h660q49 0 83.5 34t34.5 83v353
q0 48 -34.5 82.5t-83.5 34.5zM915 55q0 -31 -21.5 -52.5t-52.5 -21.5h-660q-30 0 -52 21.5t-22 52.5v353q0 30 22 51.5t52 21.5h660q31 0 52.5 -21.5t21.5 -51.5v-353zM580 281q-2 26 -21 45t-46 20q-29 1 -50.5 -19.5t-21.5 -49.5q0 -22 12 -39l-54 -184h224l-54 186
q12 19 11 41zM458 98l45 151l-10 10q-9 8 -7 21q0 7 5 12q8 10 21 10q9 0 16 -7t8 -17q1 -11 -7 -19l-9 -9l45 -152h-107z" />
    <glyph glyph-name="jingyin" unicode="&#xe642;" 
d="M414 353q-2 10 -2 21v315q0 42 29 71t70 29q40 0 68.5 -30t28.5 -71v-102q0 -9 6.5 -15.5t15.5 -6.5t15 7t6 15v103q0 60 -41.5 102t-99.5 41.5t-99.5 -43t-41.5 -101.5v-314q0 -29 11 -56zM629 449q-9 0 -15 -6.5t-6 -15.5v-53q0 -42 -28.5 -71t-69.5 -29q-24 0 -46 12
l-31 -32q35 -24 77 -24q58 0 99.5 42t41.5 102v53q0 10 -6.5 16t-15.5 6zM341 266q3 0 6 1q9 3 13 12t0 18q-15 34 -15 71v191q0 10 -7 16.5t-16 5.5t-14.5 -7.5t-5.5 -14.5v-191q0 -47 19 -89q6 -13 20 -13zM808 -19h-276v175q74 7 127 61q61 63 61 151v125q0 9 -6.5 15.5
t-15.5 6.5q-9 -1 -15 -7.5t-6 -15.5v-123q0 -71 -49.5 -121.5t-118.5 -49.5q-51 1 -92 31q-8 5 -16.5 3.5t-13.5 -9t-3.5 -16.5t8.5 -14q44 -31 97 -37v-175h-277q-9 0 -15 -6.5t-6 -15.5t6 -15t15 -6h596q9 0 15.5 6t6.5 15t-6.5 15.5t-15.5 6.5zM214 62q9 0 15 7l594 605
q6 6 6 15.5t-6.5 15.5t-15 6t-15.5 -6l-593 -605q-7 -7 -7 -16t6.5 -15.5t15.5 -6.5z" />
    <glyph glyph-name="jifenguanli" unicode="&#xe643;" 
d="M366 726h-111q-8 0 -13 -5t-5 -13v-70q0 -7 5 -12.5t13 -5.5h300q8 0 13 5.5t5 12.5v70q0 8 -5 13t-13 5h-111v0q2 7 2 13q0 17 -12 29.5t-29 12.5t-29.5 -12.5t-12.5 -29.5q0 -6 3 -13v0zM368 707q8 0 13 5q7 9 3 19q-2 4 -2 8q0 10 7 16.5t16 6.5t15.5 -6.5t6.5 -16.5
q0 -4 -1 -8q-4 -11 3 -19q6 -5 13 -5h112v0v-67v0h-298v0v67v0h112zM949 232q11 14 11 30q0 40 -68 62q-57 18 -136 18q-81 0 -138 -19q-67 -22 -67 -61q0 -16 12 -30q-12 -13 -12 -29q0 -17 13 -31q-13 -14 -13 -31t14 -32q-14 -14 -14 -31t13 -32q-13 -14 -13 -31
q0 -40 69 -62q57 -18 136 -18t136 18q68 22 68 62q0 17 -13 31q13 15 13 32t-13 31q13 15 13 32t-13 31q13 14 13 31q0 16 -11 29zM915 14q-10 -12 -43 -21q-49 -14 -116 -14t-116 14q-34 9 -44 21q-1 1 0 3q3 2 6 5q18 -8 41 -13q51 -12 113 -12q79 0 136 18q10 4 17 7
q4 -3 6 -5q1 -2 0 -3zM915 76q-10 -11 -43 -21q-49 -14 -116 -14q-56 0 -98.5 9.5t-58.5 22.5q-1 2 -3 0l-8 -9l8 9q2 2 0 3q-1 1 0 3q3 2 8 6q5 -3 16 -6q57 -19 136 -19t136 19q8 2 16 6q5 -4 7 -6q2 -1 0 -3zM596 142q3 3 6 5l18 -6q57 -18 136 -18t136 18q10 3 17 6
q4 -2 6 -5q1 -1 0 -2q-10 -12 -43 -21q-49 -15 -116 -15t-116 15q-34 9 -44 21q-1 1 0 2zM915 202q-10 -12 -43 -21q-49 -14 -116 -14t-116 14q-34 9 -44 21q-1 1 0 2.5t3 2.5q10 -4 21 -8q57 -18 136 -18t136 18q11 4 20 8q2 -1 3 -2.5t0 -2.5zM915 260q-10 -11 -43 -21
q-49 -14 -116 -14t-116 14q-34 10 -44 21q-1 1 0 3q9 10 36 19q50 16 124 16q67 0 116 -14q33 -10 43 -21q1 -1 0 -3zM398.5 397q-24.5 0 -42 -17t-17.5 -42t17.5 -42t42 -17t42 17.5t17.5 42t-17.5 41.5t-42 17zM398.5 307q-12.5 0 -22 9t-9.5 22t9.5 22t22 9t21.5 -9
t9 -22t-9 -22t-21.5 -9zM553 284q20 13 20 37v33q0 25 -20 38q-9 6 -7 17v9q0 18 -13 31l-23 24q-13 13 -32 13q-4 0 -9 -1q-10 -2 -17 7q-13 20 -37 20h-33q-24 0 -38 -20q-6 -9 -16 -7q-4 1 -9 1q-19 0 -32 -13l-23 -23q-14 -14 -14 -32q0 -4 1 -9q2 -11 -7 -17
q-20 -13 -20 -37v-33q0 -24 20 -38q9 -6 7 -17q-1 -4 -1 -8q0 -19 14 -32l23 -24q13 -13 32 -13q4 0 9 1q10 2 16 -7q14 -20 38 -20h33q24 0 37 20q7 9 17 7q4 -1 9 -1q19 0 32 13l23 24q13 13 13 31v9q-2 11 7 17zM529 338q0 -7 -5.5 -12.5t-12.5 -5.5h-1q-12 0 -16 -11
l-1 -4q-2 -5 -5 -11l-2 -3q-5 -11 4 -19l12 -13q1 0 1 -0.5t-1 -0.5l-23 -24h-1.5h-0.5l-13 13q-8 8 -18 3l-4 -2q-5 -2 -11 -4l-3 -1q-12 -4 -12 -16v-1q0 -8 -5 -13t-12.5 -5t-12.5 5t-5 13v1q0 12 -11 16l-4 1q-6 2 -11 4l-3 2q-11 5 -19 -3l-13 -13h-0.5h-1.5l-23 24
v0.5v1.5l13 12q8 8 3 19l-2 3q-2 5 -4 11l-2 4q-4 11 -15 11h-2q-7 0 -12.5 5.5t-5.5 12.5t5.5 12.5t12.5 5.5h2q11 0 15 11l2 4q2 6 4 11l2 3q5 11 -3 19l-13 13v0.5v0.5l23 24h1.5h0.5l13 -13q8 -8 19 -3l3 2q5 2 11 4l4 1q11 4 11 16v1q0 8 5 13t12.5 5t13 -5t5.5 -13v-1
q0 -12 11 -16l4 -1l10 -4l4 -2q10 -5 19 3l12 13h1.5h0.5l24 -24v-0.5v-1.5l-13 -12q-9 -8 -4 -19l2 -3q3 -5 5 -11l1 -4q4 -11 16 -11h1q7 0 12.5 -5.5t5.5 -12.5zM534 -19h-375q-21 0 -36.5 15t-15.5 37v630q0 17 12 29t29 12h70q4 0 7 3t3 8q0 8 6 13.5t14 5.5h96
q9 0 11 9l2 8q4 17 17.5 27.5t30.5 10.5t30.5 -10.5t17.5 -27.5l2 -8q2 -9 11 -9h95q8 0 14 -5.5t6 -13.5v-1q1 -10 11 -10h69q17 0 29.5 -12t12.5 -29v-285q0 -9 6 -15.5t15.5 -6.5t15.5 6.5t6 15.5v285q0 35 -24.5 60t-60.5 25h-35q-7 0 -10 5q-15 25 -45 25h-74
q-7 0 -10 6q-9 16 -24 28q-25 21 -58 21t-58 -21q-16 -12 -24 -28q-4 -6 -10 -6h-74q-30 0 -46 -25q-3 -5 -9 -5h-36q-35 0 -60 -25t-25 -60v-630q0 -40 28 -68t68 -28h375q9 0 15.5 6.5t6.5 15.5t-6.5 15.5t-15.5 6.5zM626 392v-39q0 -10 10 -10t10 10v259q0 14 -10 24
t-25 10h-8q-9 0 -16 -6t-9 -14q-2 -12 -14 -12h-321q-12 0 -15 12q-2 8 -9 14t-16 6h-8q-14 0 -24 -10t-10 -24v-570q0 -14 10 -24t24 -10h341q10 0 10 9.5t-10 9.5h-341q-6 0 -10.5 4t-4.5 11v570q0 6 4.5 10t10.5 4h1q12 0 14 -12q2 -8 9 -13.5t16 -5.5h337q9 0 15.5 5.5
t8.5 13.5q3 12 15 12h1q6 0 10.5 -4t4.5 -10v-220h-1z" />
    <glyph glyph-name="kefu" unicode="&#xe644;" 
d="M960 -40q-4 81 -35 156q-34 83 -96 146.5t-142 98.5q-30 13 -61 22q28 16 52 40q14 14 25 31q36 8 65 23q69 36 69 92q0 40 -38 71q-24 21 -61 34q-3 1 -6 1q-18 49 -54 87q-69 70 -165.5 70t-164.5 -70t-68 -169.5t68 -169.5q23 -24 52 -40q-32 -9 -62 -22
q-81 -35 -142.5 -98.5t-95.5 -146.5q-31 -75 -35 -156q-1 -10 5.5 -17t16.5 -7v0q8 0 14.5 6.5t6.5 15.5q6 108 61 198.5t146 143.5t197 53t197.5 -53t146.5 -143.5t60 -198.5q1 -9 7 -15t15 -6v0q9 -1 15.5 6t6.5 17zM796 569q0 -28 -45 -52q-9 -4 -20 -9q15 41 15 84
q0 16 -2 32q52 -25 52 -55zM324 592.5q0 80.5 55.5 137.5t133.5 57t133.5 -57t55.5 -138q0 -53 -26 -98q-27 -4 -55 -4q-35 0 -67 6q-2 27 -21.5 45t-45.5 18q-28 0 -48 -20.5t-20 -49t20 -49t48 -20.5q37 0 57 33q37 -8 77 -8h16q-54 -47 -124 -47q-78 0 -133.5 57
t-55.5 137.5zM511 489q0 -10 -7 -17.5t-17 -7.5t-17 7.5t-7 17.5t7 17.5t17 7.5t17 -7.5t7 -17.5z" />
    <glyph glyph-name="liebiao" unicode="&#xe646;" 
d="M150 832q-35 0 -59.5 -25t-24.5 -59.5t24.5 -59t59.5 -24.5t59.5 24.5t24.5 59t-24.5 59.5t-59.5 25zM149.5 707q-16.5 0 -28 12t-11.5 28.5t11.5 28.5t28 12t28.5 -12t12 -28.5t-12 -28.5t-28.5 -12zM148.5 589q-34.5 0 -59.5 -24.5t-25 -59t25 -59.5t59.5 -25t59 25
t24.5 59.5t-24.5 59t-59 24.5zM148.5 465q-16.5 0 -28.5 12t-12 28.5t12 28.5t28.5 12t28 -12t11.5 -28.5t-11.5 -28.5t-28 -12zM148.5 347q-34.5 0 -59.5 -24.5t-25 -59.5t25 -59.5t59.5 -24.5t59 24.5t24.5 59.5t-24.5 59.5t-59 24.5zM148.5 223q-16.5 0 -28.5 11.5
t-12 28.5t12 28.5t28.5 11.5t28 -11.5t11.5 -28.5t-11.5 -28.5t-28 -11.5zM148.5 105q-34.5 0 -59.5 -24.5t-25 -59.5t25 -59.5t59.5 -24.5t59 24.5t24.5 59.5t-24.5 59.5t-59 24.5zM148.5 -19q-16.5 0 -28.5 11.5t-12 28t12 28.5t28.5 12t28 -12t11.5 -28.5t-11.5 -28
t-28 -11.5zM360 696h549q21 0 36 15t15 36.5t-15 36.5t-36 15h-549q-21 0 -36 -15t-15 -36.5t15 -36.5t36 -15zM909 72h-549q-21 0 -36 -15t-15 -36t15 -36t36 -15h549q21 0 36 15t15 36t-15 36t-36 15zM909 314h-549q-21 0 -36 -15t-15 -36t15 -36t36 -15h549q21 0 36 15
t15 36t-15 36t-36 15zM909 557h-549q-21 0 -36 -15t-15 -36.5t15 -36.5t36 -15h549q21 0 36 15t15 36.5t-15 36.5t-36 15z" />
    <glyph glyph-name="pinglun" unicode="&#xe647;" 
d="M884 767h-744q-31 0 -53.5 -30t-22.5 -72v-442q0 -42 22.5 -72t53.5 -30h64q8 0 10 -8l32 -101q2 -5 7 -7t10 1l200 113q2 2 5 2h416q32 0 54 30t22 72v442q0 42 -22 72t-54 30zM914 223q0 -27 -13 -45q-9 -11 -17 -11h-419q-12 0 -22 -6l-154 -87q-4 -3 -9 -1t-7 7
l-15 47q-5 18 -20 29t-34 11h-64q-8 0 -17 11q-13 18 -13 45v442q0 27 13 44q9 12 17 12h744q9 0 17 -12q13 -17 13 -44v-442v0zM750 622h-575q-17 0 -28.5 -11t-11.5 -26.5t11.5 -26t28.5 -10.5h575q16 0 27.5 10.5t11.5 26t-11 26.5t-28 11zM750 496h-575q-17 0 -28.5 -11
t-11.5 -27t11.5 -27t28.5 -11h575q16 0 27.5 11t11.5 27t-11 27t-28 11zM560 366h-390q-15 0 -25 -11t-10 -27t10 -27t25 -11h390q14 0 24 11t10 27t-10 27t-24 11z" />
    </font>
</defs>
</svg>
